<?xml version="1.0" encoding="UTF-8"?>
<svg version="1.1"
    xmlns="http://www.w3.org/2000/svg" width="1950" height="2048">
    <path d="M0 0 C0.69634048 -0.00946152 1.39268097 -0.01892303 2.11012268 -0.02867126 C2.83658493 -0.03306717 3.56304718 -0.03746307 4.31152344 -0.04199219 C5.47898354 -0.05251366 5.47898354 -0.05251366 6.67002869 -0.06324768 C9.17037804 -0.08066732 11.67049061 -0.08710062 14.17089844 -0.08886719 C15.024711 -0.08954193 15.87852356 -0.09021667 16.75820923 -0.09091187 C29.38662272 -0.0750364 41.56177646 0.35339238 53.92089844 3.16113281 C54.6661377 3.31678711 55.41137695 3.47244141 56.17919922 3.6328125 C77.63428489 8.18072785 97.14484571 17.84383529 116.10839844 28.58154297 C121.01264141 31.33592249 125.96960599 33.99257392 130.92089844 36.66113281 C139.50247438 41.3028223 148.0725579 45.96514864 156.6340332 50.64379883 C161.35713683 53.22322625 166.08547959 55.79231032 170.82324219 58.34472656 C180.76902044 63.7054857 190.66945737 69.12462681 200.48339844 74.72363281 C208.98627812 79.57216666 217.59484701 84.160793 226.29614258 88.6418457 C234.07754246 92.6696701 241.69112529 96.95565116 249.29589844 101.30566406 C255.92780035 105.08116257 262.63675051 108.66745494 269.42089844 112.16113281 C276.99765817 116.06485426 284.46190946 120.1134044 291.85839844 124.34863281 C301.13929233 129.65812233 310.53144709 134.72785617 319.98339844 139.72363281 C320.67198944 140.08762177 321.36058044 140.45161072 322.07003784 140.82662964 C322.7555069 141.18894684 323.44097595 141.55126404 324.1472168 141.92456055 C325.51061053 142.64528622 326.87397351 143.36607006 328.23730469 144.08691406 C328.90142868 144.43803757 329.56555267 144.78916107 330.24980164 145.15092468 C338.62353383 149.58380156 346.92901384 154.14039306 355.23730469 158.69433594 C360.1236152 161.36509227 365.02292503 164.0118456 369.92089844 166.66113281 C378.50170758 171.30424887 387.07255098 175.96514486 395.6340332 180.64379883 C400.35713683 183.22322625 405.08547959 185.79231032 409.82324219 188.34472656 C420.60878554 194.15785069 431.32972136 200.06034408 441.97070312 206.13427734 C447.32995928 209.17802013 452.72245991 212.14472241 458.16699219 215.03222656 C458.7855307 215.36071594 459.40406921 215.68920532 460.04135132 216.02764893 C463.04941865 217.62322607 466.06143623 219.21009178 469.08007812 220.78564453 C476.69325242 224.80512557 483.86404115 229.23063802 490.92089844 234.16113281 C491.56260986 234.60900146 492.20432129 235.05687012 492.86547852 235.51831055 C529.1226021 261.50358307 553.641049 301.57752302 564.23339844 344.53613281 C564.46365723 345.45386475 564.69391602 346.37159668 564.93115234 347.31713867 C569.7282837 367.98563016 570.3612283 388.71369379 570.28376146 409.82767309 C570.2726206 413.79835577 570.27927287 417.76902011 570.28346157 421.73971081 C570.2884019 428.70855833 570.28220027 435.67732533 570.26849937 442.64616013 C570.24797178 453.09962688 570.24481131 463.5530518 570.24470782 474.00653616 C570.24391482 492.95110805 570.22552204 511.8956335 570.20018654 530.84018663 C570.17769516 547.72397198 570.16192579 564.6077492 570.15206909 581.49154663 C570.15070956 583.78583787 570.1493498 586.08012911 570.14798981 588.37442034 C570.145941 591.84432041 570.14389626 595.31422047 570.14186573 598.78412054 C570.10640196 658.79982481 570.0281988 718.81546117 569.94151201 778.83110986 C569.92662496 789.13808271 569.91200989 799.44505591 569.89759064 809.75202942 C569.79800465 880.89198242 569.69091025 952.03192362 569.1294919 1237.39664966 C569.12192941 1240.80209198 569.11437419 1244.20753433 569.10681868 1247.61297667 C569.10532997 1248.28391621 569.10384127 1248.95485575 569.10230745 1249.64612679 C569.09037066 1255.02607635 569.07843988 1260.40602593 569.06651469 1265.78597552 C569.05914442 1269.11076561 569.05176663 1272.43555568 569.044379 1275.76034573 C568.95654742 1315.29674179 568.879485 1354.83314275 568.81280506 1394.36957991 C568.75671163 1427.62494726 568.69183321 1460.88028284 568.61440372 1494.13560772 C568.60625058 1497.653668 568.5981386 1501.17172837 568.59005737 1504.68978882 C568.58807794 1505.54922825 568.5860985 1506.40866767 568.58405908 1507.29415072 C568.55325317 1520.77383832 568.53184579 1534.25352314 568.51444214 1547.733234 C568.49735608 1560.8004797 568.46982196 1573.86766815 568.43082434 1586.93486726 C568.41066137 1593.78099896 568.39514503 1600.62704936 568.39283943 1607.4732132 C568.36974582 1659.3111017 568.36974582 1659.3111017 564.92089844 1680.16113281 C564.80159816 1680.89585784 564.68229788 1681.63058287 564.55938244 1682.38757229 C563.93024328 1686.18124513 563.18214191 1689.91925093 562.29589844 1693.66113281 C562.04283936 1694.75530518 561.78978027 1695.84947754 561.52905273 1696.97680664 C551.96848265 1736.73641269 533.73431561 1773.47746626 507.92089844 1805.16113281 C507.47842773 1805.70656738 507.03595703 1806.25200195 506.58007812 1806.81396484 C495.361136 1820.53522915 482.98297657 1833.34257051 468.92089844 1844.16113281 C467.96570312 1844.93328125 467.01050781 1845.70542969 466.02636719 1846.50097656 C456.81706471 1853.83366646 447.01311498 1860.11454074 436.92089844 1866.16113281 C436.28990234 1866.54011719 435.65890625 1866.91910156 435.00878906 1867.30957031 C412.89906703 1880.36436734 387.94128788 1888.00789951 362.72555542 1892.10678101 C361.6907142 1892.27687758 360.65587297 1892.44697415 359.58967292 1892.62222517 C348.28527448 1894.45957332 336.95087029 1896.07048286 325.60888672 1897.65576172 C323.26332808 1897.98594379 320.9178074 1898.31639555 318.57232094 1898.64708996 C312.21452385 1899.54271071 305.85620435 1900.43457052 299.49778271 1901.32574487 C293.35874923 1902.1864777 287.22021039 1903.0507279 281.08161688 1903.91459171 C268.586227 1905.67292569 256.09044226 1907.42843788 243.59442139 1909.18228149 C231.14081056 1910.93018179 218.68738602 1912.67940057 206.23419189 1914.43026733 C205.45210396 1914.54022486 204.67001602 1914.65018239 203.86422844 1914.76347197 C199.89680378 1915.32127801 195.92938226 1915.87910643 191.96196198 1916.43694365 C164.59770305 1920.28444254 137.23306807 1924.12925995 109.86816406 1927.97216797 C86.90314966 1931.19719165 63.93824 1934.42295659 40.97363281 1937.65087891 C39.72009455 1937.82707657 38.46655629 1938.00327424 37.17503202 1938.18481123 C30.97217104 1939.05669484 24.76931358 1939.92860353 18.56645775 1940.80052376 C-25.41566006 1946.98294304 -69.39830128 1953.16163071 -113.38121986 1959.3383503 C-152.04300092 1964.76781396 -190.70445846 1970.19957614 -229.36573875 1975.6326043 C-260.12429628 1979.95506502 -290.88292605 1984.27701173 -321.64160156 1988.59863281 C-322.44053385 1988.71088391 -323.23946613 1988.823135 -324.06260848 1988.93878764 C-391.69774744 1998.4416051 -459.33290777 2007.94423569 -526.97363281 2017.40722656 C-528.65943872 2017.6430739 -528.65943872 2017.6430739 -530.37930131 2017.88368583 C-550.94061324 2020.76015817 -571.5020623 2023.63565181 -592.06407726 2026.50709492 C-596.55119662 2027.13372483 -601.03826785 2027.76069458 -605.52522087 2028.38851452 C-613.22130781 2029.46508848 -620.91760488 2030.53985208 -628.61583436 2031.60101289 C-632.75889769 2032.17227137 -636.90163757 2032.74584577 -641.04418945 2033.32080078 C-641.85948254 2033.43393856 -642.67477562 2033.54707633 -643.51477456 2033.66364253 C-655.70968381 2035.36089932 -667.88052882 2037.19092726 -680.04718959 2039.07924175 C-722.83715011 2045.70409647 -764.19827822 2050.03216423 -807.53753662 2049.33483887 C-812.17014777 2049.27629387 -816.80188434 2049.27105631 -821.43472987 2049.27440941 C-827.32497391 2049.27808828 -833.21457101 2049.24677847 -839.10463524 2049.19765854 C-841.5335679 2049.17887393 -843.96256423 2049.16681494 -846.39156532 2049.1622963 C-860.23568401 2049.10785253 -871.48722155 2048.20081882 -884.07910156 2042.16113281 C-885.86067825 2041.38674949 -887.64300911 2040.61409357 -889.42675781 2039.84472656 C-891.00273745 2039.1052611 -892.57437228 2038.35646746 -894.14160156 2037.59863281 C-895.01316895 2037.18081543 -895.88473633 2036.76299805 -896.78271484 2036.33251953 C-904.48612315 2032.57465914 -911.923568 2028.39219194 -919.35083008 2024.11987305 C-926.01156305 2020.29544581 -932.74904593 2016.67336806 -939.57910156 2013.16113281 C-947.11513771 2009.27918242 -954.53731706 2005.25203133 -961.89160156 2001.03613281 C-971.51002441 1995.52642001 -981.26847075 1990.31700822 -991.07910156 1985.16113281 C-1001.56616578 1979.64901191 -1011.96355169 1974.03364383 -1022.23925781 1968.13378906 C-1030.74987206 1963.27922816 -1039.4075905 1958.71926511 -1048.07910156 1954.16113281 C-1057.69914179 1949.10424972 -1067.27470771 1944.00609978 -1076.70410156 1938.59863281 C-1087.1165854 1932.62840306 -1097.69809846 1927.00432443 -1108.30810547 1921.39624023 C-1109.67060321 1920.67600131 -1111.03307101 1919.95570575 -1112.39550781 1919.23535156 C-1113.05957642 1918.88425827 -1113.72364502 1918.53316498 -1114.40783691 1918.1714325 C-1122.78162075 1913.73851678 -1131.08716095 1909.18190327 -1139.39550781 1904.62792969 C-1144.28181833 1901.95717336 -1149.18112816 1899.31042003 -1154.07910156 1896.66113281 C-1162.65991071 1892.01801675 -1171.2307541 1887.35712077 -1179.79223633 1882.6784668 C-1184.51533996 1880.09903937 -1189.24368272 1877.52995531 -1193.98144531 1874.97753906 C-1203.92722356 1869.61677992 -1213.82766049 1864.19763882 -1223.64160156 1858.59863281 C-1231.20632313 1854.28505789 -1238.83898036 1850.15115708 -1246.57910156 1846.16113281 C-1279.41344015 1829.19752056 -1279.41344015 1829.19752056 -1294.07910156 1818.16113281 C-1294.91828125 1817.53207031 -1295.75746094 1816.90300781 -1296.62207031 1816.25488281 C-1337.72327531 1784.36714348 -1361.71686538 1736.41801468 -1368.32797431 1685.23434241 C-1368.95501846 1680.02053732 -1369.22163944 1674.91411245 -1369.2049427 1669.66577625 C-1369.20639604 1668.85535642 -1369.20784939 1668.0449366 -1369.20934677 1667.20995859 C-1369.21298579 1664.50216128 -1369.20952796 1661.79442102 -1369.20608521 1659.08662415 C-1369.20724018 1657.11470306 -1369.20883084 1655.1427822 -1369.21081728 1653.17086178 C-1369.21500305 1647.7390182 -1369.21292838 1642.30719219 -1369.20983334 1636.87534854 C-1369.20755173 1630.97344758 -1369.21102116 1625.07154952 -1369.2137289 1619.16964912 C-1369.21789533 1608.14942804 -1369.21743192 1597.12921166 -1369.21474567 1586.10899056 C-1369.2122401 1575.71125586 -1369.21189715 1565.31352353 -1369.21348381 1554.91578865 C-1369.21363954 1553.86736648 -1369.21363954 1553.86736648 -1369.21379842 1552.79776406 C-1369.21422276 1549.95158756 -1369.21465409 1547.10541106 -1369.21509662 1544.25923457 C-1369.21964974 1514.59819139 -1369.21627158 1484.93715213 -1369.20991713 1455.27610952 C-1369.20923438 1452.08426782 -1369.2085536 1448.89242611 -1369.2078743 1445.70058441 C-1369.20770476 1444.908417 -1369.20753521 1444.11624959 -1369.20736054 1443.3000771 C-1369.2039682 1427.31212144 -1369.20233818 1411.32416581 -1369.20101651 1395.33620986 C-1369.19420047 1312.98786402 -1369.17091487 1230.63952505 -1368.66897322 827.18529325 C-1368.64939647 816.42643826 -1368.63036683 805.66758241 -1368.61173248 794.90872574 C-1368.49329869 726.57105371 -1368.350276 658.23351685 -1368.14676937 589.89603465 C-1368.09715317 573.20141365 -1368.05638095 556.50678989 -1368.02069092 539.81213379 C-1367.98164751 521.6077787 -1367.92855169 503.40352805 -1367.85538405 485.19927657 C-1367.81596205 475.31590944 -1367.78637435 465.43264681 -1367.77252193 455.54920992 C-1367.76225089 449.02316857 -1367.73747486 442.49728214 -1367.70121644 435.97133377 C-1367.68118881 432.30304954 -1367.66665149 428.63502476 -1367.67009234 424.966681 C-1367.70992058 362.94871889 -1349.48376675 301.0433991 -1309.3984375 252.75683594 C-1308.13096142 251.22385598 -1306.88956267 249.66942809 -1305.64941406 248.11425781 C-1293.68736069 233.43186209 -1280.09520072 219.53032098 -1264.74902344 208.38671875 C-1263.01632494 207.11505991 -1261.32067584 205.80323484 -1259.62597656 204.48144531 C-1249.4114595 196.61209086 -1238.43733261 190.23420101 -1227.07910156 184.16113281 C-1226.36560547 183.77828125 -1225.65210938 183.39542969 -1224.91699219 183.00097656 C-1215.96655603 178.2865583 -1206.63472381 174.76610697 -1197.07910156 171.47363281 C-1196.06702637 171.11696533 -1195.05495117 170.76029785 -1194.01220703 170.39282227 C-1173.31290478 163.52639473 -1151.22211084 160.98165587 -1129.70629883 158.00219727 C-1126.93707173 157.61397971 -1124.16815892 157.22354011 -1121.39922905 156.83320904 C-1115.44616326 155.99518126 -1109.49237764 155.16244246 -1103.53805351 154.33340454 C-1094.75832794 153.11094934 -1085.97981198 151.87997115 -1077.20152346 150.64724429 C-1062.56118983 148.59153951 -1047.91994091 146.54242859 -1033.27813721 144.4972229 C-1018.78818494 142.47319205 -1004.29868428 140.44597247 -989.80975342 138.41464233 C-988.90439302 138.28771226 -987.99903262 138.16078219 -987.06623706 138.03000575 C-982.48091885 137.38712817 -977.89561028 136.74418188 -973.31030703 136.1011976 C-964.10718081 134.81067811 -954.90400143 133.52053788 -945.70080566 132.23051453 C-944.78896677 132.10269956 -943.87712788 131.9748846 -942.93765751 131.84319646 C-929.07596182 129.90022707 -915.21402848 127.9589594 -901.35192871 126.01887512 C-900.44144877 125.89144783 -899.53096882 125.76402054 -898.59289858 125.63273182 C-894.0298015 124.99410628 -889.4667013 124.35550306 -884.90360022 123.71690619 C-847.11799302 118.42885003 -809.33406421 113.12896971 -771.55175781 107.81738281 C-768.99774364 107.45834647 -766.44372943 107.09931034 -763.88971519 106.74027443 C-753.93017534 105.34015864 -743.97065064 103.93993505 -734.01115322 102.5395174 C-717.01209664 100.14929318 -700.01283508 97.760531 -683.01342773 95.37280273 C-681.81265646 95.20414259 -680.61188518 95.03548244 -679.37472689 94.86171138 C-673.3262744 94.01215482 -667.27781837 93.16262343 -661.22936058 92.31310463 C-622.84928693 86.92252065 -584.46950784 81.52984354 -546.08999527 76.13526636 C-521.54474466 72.68521867 -496.9994395 69.23555914 -472.45410156 65.78613281 C-471.19146956 65.60869018 -469.92883757 65.43124755 -468.62794399 65.24842787 C-390.90649748 54.32599142 -313.18161032 43.42837778 -235.45330811 32.55484009 C-223.46915343 30.87834699 -211.4850336 29.20160497 -199.50097656 27.52441406 C-198.05824112 27.32250092 -198.05824112 27.32250092 -196.5863595 27.11650872 C-167.8582106 23.09576824 -139.1318096 19.06273842 -110.40722656 15.01660156 C-109.54944201 14.89577713 -108.69165747 14.7749527 -107.80787945 14.65046692 C-91.01684158 12.28525753 -74.22607574 9.9181231 -57.43571091 7.54814053 C-52.53380706 6.85624078 -47.63185304 6.16469687 -42.72988725 5.47323614 C-38.33034335 4.85258855 -33.93093484 4.2309871 -29.53155518 3.60917664 C-27.30391896 3.29483862 -25.07627845 2.980531 -22.84863281 2.66625977 C-21.37057978 2.45700206 -21.37057978 2.45700206 -19.86266708 2.24351692 C-4.29062806 0.04907463 -4.29062806 0.04907463 0 0 Z " fill="#EE2A3B" transform="translate(1369.0791015625,-0.1611328125)"/>
    <path d="M0 0 C0.85119413 -0.01317969 1.70238827 -0.02635938 2.57937616 -0.03993845 C3.49949269 -0.02382564 4.41960922 -0.00771283 5.36760807 0.00888824 C6.35697693 0.00235056 7.3463458 -0.00418712 8.36569554 -0.01092291 C11.67978854 -0.02548387 14.99211497 0.00282657 18.30609989 0.03098297 C20.68343246 0.02940102 23.06076452 0.02520586 25.43808842 0.01859283 C31.22845737 0.00938298 37.01825429 0.02795328 42.80853599 0.05916876 C49.57092986 0.09433814 56.33322232 0.09708952 63.09569336 0.09839994 C75.18531118 0.10177664 87.27468918 0.13339281 99.36420536 0.1813736 C111.04912141 0.22771406 122.73388564 0.25619879 134.41889286 0.26340485 C135.13612616 0.26385038 135.85335947 0.26429592 136.59232711 0.26475495 C138.03758416 0.26564027 139.48284121 0.26652432 140.92809827 0.26740709 C141.64134587 0.26784622 142.35459348 0.26828535 143.08945465 0.26873779 C143.8010944 0.26916977 144.51273415 0.26960174 145.24593874 0.2700468 C156.43182212 0.27749743 167.61768154 0.30022895 178.80353813 0.32499859 C182.1665594 0.33234526 185.52957841 0.33885673 188.89260459 0.34349632 C196.57501688 0.35414687 204.25728826 0.37359338 211.93963337 0.40789795 C214.25366217 0.4168247 216.56770601 0.42259237 218.88175106 0.42471313 C230.25909218 0.43746211 241.55685732 0.67308959 252.89852238 1.62729645 C254.26633812 1.74078816 254.26633812 1.74078816 255.6617865 1.85657263 C293.03707931 5.34977655 331.4184522 22.45823541 356.49970341 50.7438736 C373.86245691 72.41127958 383.48155325 97.25246237 386.49970341 124.7438736 C386.5843787 125.40814362 386.66905399 126.07241364 386.7562952 126.75681305 C391.26105561 163.39201063 383.18331884 203.08998202 360.49970341 232.7438736 C357.01051306 236.91352846 353.27234278 240.83191962 349.49970341 244.7438736 C348.51550419 245.82281891 348.51550419 245.82281891 347.51142216 246.9235611 C319.3222024 276.98401386 273.98399366 286.74756454 234.49970341 288.7438736 C224.87951954 289.02679797 215.25546646 289.00436796 205.63199139 288.98770332 C200.94495124 288.97994165 196.25805742 288.99090846 191.57103825 289.0049057 C178.26559438 289.04224477 164.96022698 289.06075468 151.6547327 289.04929352 C144.25830999 289.04308044 136.86213265 289.05461444 129.46577042 289.08573884 C124.80878033 289.10434093 120.15248883 289.10113269 115.4955107 289.08157122 C112.61072526 289.07469355 109.72632055 289.08863227 106.84160709 289.10852051 C104.87111975 289.11596993 102.90058745 289.09862254 100.93016911 289.08052826 C99.75475559 289.09292542 98.57934208 289.10532257 97.36830997 289.1180954 C95.84018413 289.11834701 95.84018413 289.11834701 94.28118706 289.11860371 C90.34391669 290.00369128 88.88968326 291.52792041 86.49970341 294.7438736 C85.76857583 298.21006075 85.76857583 298.21006075 85.90757084 302.09357452 C85.90244577 303.18900808 85.90244577 303.18900808 85.89721715 304.3065716 C85.89167011 306.74904365 85.92165062 309.18977892 85.95136356 311.63205719 C85.95437179 313.38495903 85.9550823 315.1378661 85.95366764 316.89076996 C85.95503926 320.66358845 85.97166566 324.43592459 85.99981403 328.20863724 C86.0432249 334.17592414 86.04654451 340.14281778 86.04325199 346.11023712 C86.04113895 360.93262911 86.08754894 375.75482293 86.1524744 390.57706451 C86.2026517 402.09538041 86.23761031 413.6132664 86.22400415 425.13170683 C86.21872861 431.06207677 86.24591589 436.99113391 86.29757428 442.92126822 C86.32259022 446.61355579 86.31850052 450.30539359 86.30639172 453.99772835 C86.30668153 455.70737465 86.31895623 457.41706822 86.34422588 459.12652779 C86.54824884 473.63815472 86.54824884 473.63815472 82.46917057 478.2599411 C78.53763104 481.25704521 75.01645706 481.73640928 70.18109989 481.63376617 C68.97970371 481.64975609 68.97970371 481.64975609 67.7540369 481.66606903 C65.12514508 481.69163428 62.49962001 481.66660217 59.87079716 481.63840485 C58.03429118 481.64058267 56.19778661 481.64498658 54.36129093 481.65151215 C50.52034961 481.65730708 46.68055373 481.63840551 42.8397913 481.60153961 C37.92426262 481.55602734 33.01095016 481.56866057 28.09537506 481.59934711 C24.30590294 481.61716791 20.51694737 481.60589055 16.72750378 481.58570671 C14.91547572 481.57920482 13.10339529 481.58128548 11.29138851 481.59221077 C8.75602961 481.60277997 6.22394038 481.57455574 3.68891239 481.53610992 C2.94537006 481.54668427 2.20182774 481.55725861 1.43575382 481.56815338 C-2.45505019 481.46556838 -4.89797739 480.82516017 -7.69219518 478.19773769 C-10.99319584 474.69350238 -11.34505494 471.3970168 -11.25534344 466.71341705 C-11.2684244 465.5204905 -11.2684244 465.5204905 -11.28176963 464.30346441 C-11.30370035 461.63349455 -11.28283217 458.96558679 -11.26219845 456.29563141 C-11.26911075 454.36431189 -11.27863932 452.43300026 -11.29056191 450.50170517 C-11.31565398 445.19069421 -11.30320923 439.88032851 -11.2846446 434.56931496 C-11.27109344 428.84323588 -11.29201118 423.11726933 -11.30852413 417.39121246 C-11.33523526 406.1723578 -11.32942723 394.95374367 -11.31204829 383.73487949 C-11.29851028 374.61892023 -11.29665494 365.50302849 -11.30319118 356.38706207 C-11.30411058 355.09073829 -11.30502998 353.79441451 -11.30597724 352.45880818 C-11.30789555 349.82553575 -11.30984083 347.19226334 -11.31181279 344.55899096 C-11.32844304 320.55834928 -11.31118275 296.55783768 -11.27975721 272.55721694 C-11.25128317 250.64410507 -11.25383092 228.73120239 -11.28252316 206.81809235 C-11.31464596 182.2026277 -11.32728321 157.58728952 -11.30884957 132.97180557 C-11.30693823 130.34809877 -11.30505201 127.72439196 -11.30319118 125.10068512 C-11.30226553 123.80969571 -11.30133988 122.51870631 -11.30038618 121.18859601 C-11.29520076 112.08122023 -11.30396045 102.97391856 -11.3180685 93.86655426 C-11.33487815 82.77105496 -11.33038144 71.67581041 -11.29838404 60.58034039 C-11.2825908 54.9167675 -11.27648196 49.2536197 -11.29627895 43.59004974 C-11.31411744 38.40849271 -11.30440084 33.22775599 -11.27241364 28.04627371 C-11.26569421 26.16884344 -11.26915971 24.2913443 -11.28366837 22.41395807 C-11.30185049 19.8664227 -11.28327665 17.32171646 -11.25534344 14.77433014 C-11.26939043 14.04097364 -11.28343743 13.30761714 -11.29791009 12.55203772 C-11.20923185 8.52116172 -10.42529076 6.1805084 -7.7343747 3.28846216 C-5.20288661 1.07251054 -3.45094091 -0.00564907 0 0 Z " fill="#FEFEFE" transform="translate(772.5002965927124,757.2561264038086)"/>
    <path d="M0 0 C1.66365349 -0.01058945 1.66365349 -0.01058945 3.36091614 -0.02139282 C50.55407864 -0.25350487 50.55407864 -0.25350487 70.1953125 3.203125 C71.28553711 3.39116699 72.37576172 3.57920898 73.49902344 3.77294922 C114.27709339 11.11861186 153.94405287 28.62706714 178.47265625 63.19140625 C193.6659744 85.27490211 200.8606874 109.976153 201.6953125 136.703125 C201.73817383 137.457146 201.78103516 138.21116699 201.82519531 138.98803711 C201.87336237 142.97742865 201.45907278 145.45050684 198.66612244 148.40556335 C195.12331715 151.72673526 191.72600822 152.06248579 187.00610352 151.99536133 C186.20692505 152.00748154 185.40774658 152.01960175 184.58435059 152.03208923 C181.95520314 152.0634714 179.32847501 152.05100905 176.69921875 152.03515625 C174.86367659 152.04174251 173.02813963 152.04996153 171.19261169 152.05973816 C167.3500339 152.07307846 163.5082915 152.06427097 159.66577148 152.0402832 C154.75128534 152.01171179 149.83919901 152.04174766 144.92492771 152.08891773 C141.1354273 152.11816721 137.34649651 152.1143622 133.55692863 152.10089684 C131.7456977 152.09874899 129.93442095 152.10720041 128.12329292 152.12662697 C112.21095345 152.26842727 112.21095345 152.26842727 107.59448242 147.9140625 C104.54654008 144.07284695 104.10522953 140.16789315 103.9453125 135.390625 C103.82661902 133.78988447 103.70166465 132.1895953 103.5703125 130.58984375 C103.51230469 129.82978027 103.45429687 129.0697168 103.39453125 128.28662109 C102.35671639 117.43280737 96.50285409 107.45060732 88.625 100.078125 C61.09843413 78.83575905 14.77197323 80.24610922 -18.10107422 84.02832031 C-27.37814804 85.33178344 -36.11791074 87.69055425 -44.8046875 91.203125 C-45.72507812 91.57179688 -46.64546875 91.94046875 -47.59375 92.3203125 C-58.03017146 97.00539334 -64.93231219 104.09684813 -69.74609375 114.40625 C-73.58031726 124.53652318 -72.84643515 137.89986416 -69.8046875 148.203125 C-69.45470703 149.42902344 -69.45470703 149.42902344 -69.09765625 150.6796875 C-64.88605114 163.10296103 -55.09488825 170.36859173 -43.8046875 176.203125 C-26.60627546 184.3126268 -8.05058969 188.32769726 10.5078125 191.953125 C11.26468353 192.10192108 12.02155457 192.25071716 12.80136108 192.40402222 C22.03092927 194.20511185 31.23388096 195.68594373 40.57861328 196.74560547 C45.6829131 197.39130939 50.70881596 198.35836211 55.75390625 199.36328125 C59.00852334 199.99486294 62.26942959 200.54959454 65.54296875 201.07421875 C114.66957835 209.00749948 168.3380169 227.85735241 198.80078125 269.7109375 C209.35427523 284.74425768 217.0147838 302.0463204 220.1953125 320.203125 C220.37964844 321.08484375 220.56398438 321.9665625 220.75390625 322.875 C226.97776213 357.3852078 220.61308398 395.34628739 200.859375 424.5234375 C180.01004609 453.93671779 150.02070804 471.29530673 116.1953125 482.203125 C115.53241211 482.41904297 114.86951172 482.63496094 114.18652344 482.85742188 C110.22336394 484.1264875 106.2346728 485.20569637 102.1953125 486.203125 C101.54191895 486.3676416 100.88852539 486.5321582 100.21533203 486.70166016 C85.40148515 490.3596964 70.36593716 491.83165997 55.1953125 493.203125 C54.04216553 493.31333984 54.04216553 493.31333984 52.86572266 493.42578125 C29.74783138 495.58751393 6.25184954 494.48312355 -16.8046875 492.203125 C-17.55814453 492.13367676 -18.31160156 492.06422852 -19.08789062 491.99267578 C-66.57953584 487.53608157 -114.31957782 468.51288969 -145.43603516 431.24951172 C-165.01956747 406.54403913 -175.39350792 374.74439298 -176.3671875 343.390625 C-176.40642334 342.65545654 -176.44565918 341.92028809 -176.48608398 341.1628418 C-176.50468821 337.25187096 -175.91515692 334.819198 -173.2800293 332.01167297 C-169.71106246 328.65396197 -166.26545405 328.34420701 -161.5078125 328.41088867 C-160.69727417 328.39876846 -159.88673584 328.38664825 -159.05163574 328.37416077 C-156.38522705 328.34277827 -153.72120345 328.35523991 -151.0546875 328.37109375 C-149.19432955 328.36450816 -147.33397673 328.35628946 -145.47363281 328.34651184 C-141.5797843 328.33317199 -137.68676025 328.34197957 -133.79296875 328.3659668 C-128.80889499 328.39455827 -123.82718502 328.36448186 -118.84332275 328.31733227 C-115.00325243 328.28810957 -111.16374511 328.29187958 -107.3236084 328.30535316 C-105.48643143 328.30750329 -103.64920952 328.29902882 -101.81213379 328.27962303 C-99.24050854 328.25705169 -96.67298312 328.27941391 -94.1015625 328.31323242 C-93.34709839 328.29749176 -92.59263428 328.2817511 -91.81530762 328.26553345 C-88.7290092 328.34546303 -86.41409877 328.70822441 -83.98841858 330.67811012 C-79.91861258 335.18631668 -78.95463342 338.65684055 -78.7421875 344.640625 C-77.57179034 360.12563412 -72.83903091 376.67079026 -60.98828125 387.4921875 C-35.50610191 407.45854627 -5.0663443 410.57857519 26.3347168 410.57373047 C29.49387509 410.5781057 32.65163344 410.61458879 35.81054688 410.65234375 C62.02058871 410.79535052 92.66894438 406.44954519 112.1953125 387.203125 C124.20821532 373.49428296 125.98664092 357.27843221 125.37011719 339.82958984 C124.50684947 326.8588718 118.93826623 314.76602425 109.375 305.8828125 C79.0595948 282.52147874 31.67617017 278.13869555 -5.0546875 273.765625 C-55.23359184 267.54095099 -112.95885806 250.39633713 -145.39453125 208.98828125 C-165.43859246 181.26922908 -172.59938986 146.64566658 -168.39013672 112.87744141 C-162.96902641 80.41609416 -146.31239473 53.61287054 -119.57128906 34.43066406 C-102.74995734 22.74220968 -84.34360651 15.081709 -64.8046875 9.203125 C-63.78737549 8.8939917 -63.78737549 8.8939917 -62.74951172 8.57861328 C-42.74633575 2.64963671 -20.83079212 0.08808628 0 0 Z " fill="#FEFEFE" transform="translate(477.8046875,750.796875)"/>
    <path d="M0 0 C1.41496062 -0.00322173 2.82991735 -0.00904265 4.24485779 -0.01725769 C8.0804907 -0.03177356 11.91507272 -0.00886607 15.75057864 0.02160144 C19.77943048 0.04804365 23.80825253 0.04266833 27.83717346 0.04151917 C34.612004 0.04432785 41.38643127 0.07034429 48.16113281 0.11132812 C55.95907854 0.15833236 63.75658112 0.17432815 71.55465835 0.17212147 C79.89114302 0.17008203 88.22745996 0.19099664 96.56389356 0.21846128 C98.94706137 0.22481069 101.33020153 0.22697881 103.713377 0.22817802 C107.48676994 0.23123004 111.25980218 0.24985183 115.03307533 0.27967644 C117.05185873 0.29238535 119.07071628 0.29095719 121.08953857 0.28884888 C138.76190591 0.47114029 157.64890018 4.17203776 171.04907227 16.46704102 C185.83101358 32.02189429 185.78863355 52.06425087 185.49829102 72.15063477 C185.25357369 80.49957417 184.00716095 87.22682438 180.15454102 94.72875977 C179.69692383 95.65946289 179.23930664 96.59016602 178.76782227 97.54907227 C171.60316695 110.70063134 160.21093512 117.41923323 146.15454102 121.72875977 C136.55206324 123.63861104 127.02128109 124.03430483 117.25805664 124.05102539 C115.82731636 124.06031358 114.39658088 124.07036699 112.96585083 124.08111572 C109.12755789 124.10702481 105.28933422 124.12018096 101.45096779 124.12913704 C99.04774196 124.13504183 96.64453428 124.1432581 94.24131775 124.15214539 C86.70538201 124.17937883 79.16948872 124.19878002 71.63350725 124.20654917 C62.96139793 124.21554316 54.28991394 124.25083727 45.61799479 124.30855036 C38.88814977 124.35177566 32.1584811 124.37195651 25.42849874 124.3746314 C21.41862339 124.37672414 17.40934064 124.38847066 13.39961243 124.42427063 C9.6366564 124.45722935 5.87473948 124.46154715 2.11169052 124.44399261 C0.73382149 124.44245275 -0.64410364 124.45112674 -2.02183151 124.47090912 C-13.69034247 124.62861341 -13.69034247 124.62861341 -17.66326904 121.35766602 C-20.98678836 117.06305472 -20.68470929 112.16680192 -20.62182617 106.95336914 C-20.63234009 105.87948441 -20.642854 104.80559967 -20.65368652 103.69917297 C-20.6800522 100.15635662 -20.66262561 96.61534377 -20.64233398 93.07250977 C-20.64637652 90.60680802 -20.65220028 88.1411086 -20.659729 85.67541504 C-20.66857094 80.51051035 -20.65572941 75.3462287 -20.62768555 70.18139648 C-20.59350061 63.56325437 -20.61318562 56.94657214 -20.64912033 50.32848358 C-20.67080913 45.23774225 -20.66389762 40.14734663 -20.64835358 35.05659485 C-20.64435312 32.61656013 -20.64925577 30.17649395 -20.6632309 27.73649597 C-20.67848312 24.32486934 -20.65522613 20.91560145 -20.62182617 17.50415039 C-20.63397156 16.49721634 -20.64611694 15.49028229 -20.65863037 14.45283508 C-20.58029253 10.13033507 -20.37258487 6.60097004 -17.66227722 3.10084534 C-12.7135179 -0.97358682 -6.0624131 -0.07997028 0 0 Z " fill="#EE2A3B" transform="translate(877.845458984375,839.271240234375)"/>
</svg>
