<?xml version="1.0" encoding="UTF-8"?>
<!DOCTYPE svg PUBLIC "-//W3C//DTD SVG 1.1//EN" "http://www.w3.org/Graphics/SVG/1.1/DTD/svg11.dtd">
<svg xmlns="http://www.w3.org/2000/svg" version="1.1" width="512px" height="512px" style="shape-rendering:geometricPrecision; text-rendering:geometricPrecision; image-rendering:optimizeQuality; fill-rule:evenodd; clip-rule:evenodd" xmlns:xlink="http://www.w3.org/1999/xlink">
<g><path style="opacity:0.934" fill="#FFFFFF" d="M 131.5,33.5 C 134.187,33.3359 136.854,33.5026 139.5,34C 170.789,76.7448 201.956,119.578 233,162.5C 233.667,165.5 233.667,168.5 233,171.5C 218.632,177.35 206.632,186.35 197,198.5C 190.763,207.544 187.096,217.544 186,228.5C 184.494,231.67 182.994,234.837 181.5,238C 173.15,238.384 164.817,238.05 156.5,237C 111.393,233.263 66.3925,228.93 21.5,224C 17.5761,221.756 15.9094,218.422 16.5,214C 27.2399,135.853 65.5733,75.6865 131.5,33.5 Z M 131.5,55.5 C 158.826,91.1876 185.493,127.521 211.5,164.5C 189.4,176.865 175.4,195.365 169.5,220C 125.176,216.668 80.8424,213.168 36.5,209.5C 46.358,144.402 78.0246,93.0689 131.5,55.5 Z"/></g>
<g><path style="opacity:0.933" fill="#FFFFFF" d="M 371.5,36.5 C 374.649,36.2114 377.649,36.7114 380.5,38C 446.421,80.9471 484.087,141.78 493.5,220.5C 493.408,223.953 492.075,226.786 489.5,229C 454.61,232.106 419.61,234.439 384.5,236C 365.516,237.444 346.516,238.11 327.5,238C 326.333,236.833 325.167,235.667 324,234.5C 321.086,207.16 306.919,188.327 281.5,178C 279.667,176.167 277.833,174.333 276,172.5C 275.245,169.697 275.578,167.03 277,164.5C 307,123.167 337,81.8333 367,40.5C 368.397,38.9297 369.897,37.5964 371.5,36.5 Z M 377.5,55.5 C 391.644,64.0164 404.477,74.3498 416,86.5C 448.363,121.232 467.863,162.232 474.5,209.5C 430.158,213.168 385.824,216.668 341.5,220C 335.103,195.687 321.103,177.187 299.5,164.5C 325.764,128.284 351.764,91.951 377.5,55.5 Z"/></g>
<g><path style="opacity:0.933" fill="#FFFFFF" d="M 248.5,186.5 C 283.278,186.699 302.278,204.032 305.5,238.5C 303.256,270.578 286.089,287.911 254,290.5C 226.409,289.222 209.409,275.222 203,248.5C 199.188,219.607 210.688,199.773 237.5,189C 241.312,188.205 244.979,187.371 248.5,186.5 Z M 250.5,204.5 C 272.419,205.42 284.752,216.753 287.5,238.5C 284.021,263.061 270.021,273.894 245.5,271C 225.215,263.266 217.382,248.766 222,227.5C 227.551,214.768 237.051,207.101 250.5,204.5 Z"/></g>
<g><path style="opacity:0.934" fill="#FFFFFF" d="M 205.5,292.5 C 207.199,292.34 208.866,292.506 210.5,293C 237.722,311.33 265.055,311.663 292.5,294C 297.149,291.523 301.315,292.023 305,295.5C 326.644,344.62 348.144,393.787 369.5,443C 369.259,444.984 368.592,446.817 367.5,448.5C 332.295,468.093 294.461,477.76 254,477.5C 213.647,477.363 175.48,468.197 139.5,450C 136.264,446.156 135.764,441.99 138,437.5C 158.608,391.951 178.941,346.285 199,300.5C 201.001,297.669 203.167,295.003 205.5,292.5 Z M 212.5,314.5 C 239.676,327.758 266.843,327.758 294,314.5C 312.317,354.469 330.65,394.469 349,434.5C 349.781,435.944 349.614,437.277 348.5,438.5C 284.611,466.797 220.945,466.464 157.5,437.5C 176.12,396.597 194.453,355.597 212.5,314.5 Z"/></g>
</svg>
