<?xml version="1.0" encoding="UTF-8"?>
<!DOCTYPE svg PUBLIC "-//W3C//DTD SVG 1.1//EN" "http://www.w3.org/Graphics/SVG/1.1/DTD/svg11.dtd">
<svg xmlns="http://www.w3.org/2000/svg" version="1.1" width="512px" height="512px" style="shape-rendering:geometricPrecision; text-rendering:geometricPrecision; image-rendering:optimizeQuality; fill-rule:evenodd; clip-rule:evenodd" xmlns:xlink="http://www.w3.org/1999/xlink">
<g><path style="opacity:0.948" fill="#FFFFFF" d="M 287.5,-0.5 C 296.167,-0.5 304.833,-0.5 313.5,-0.5C 329.972,2.55231 345.639,8.21898 360.5,16.5C 378.89,7.14277 398.223,1.47611 418.5,-0.5C 428.167,-0.5 437.833,-0.5 447.5,-0.5C 455.881,5.19387 456.547,11.6939 449.5,19C 433.811,20.2405 418.145,21.9071 402.5,24C 388.016,27.8832 374.016,33.0499 360.5,39.5C 358.5,39 356.5,38.5 354.5,38C 342.236,30.9111 329.236,25.5777 315.5,22C 291.642,17.2866 271.475,23.7866 255,41.5C 251,46.8333 247,52.1667 243,57.5C 240.34,63.4897 237.174,69.1564 233.5,74.5C 231.044,75.9477 228.378,76.6144 225.5,76.5C 216.245,74.3536 206.911,72.5203 197.5,71C 165.57,67.0369 143.737,79.8702 132,109.5C 126.086,115.697 119.92,116.03 113.5,110.5C 111.171,106.622 111.005,102.622 113,98.5C 127.008,66.0561 151.841,49.3895 187.5,48.5C 198.343,49.085 209.01,50.7517 219.5,53.5C 224.44,46.0514 229.606,38.7181 235,31.5C 248.559,14.3066 266.059,3.63997 287.5,-0.5 Z"/></g>
<g><path style="opacity:0.944" fill="#FFFFFF" d="M 511.5,61.5 C 511.5,64.5 511.5,67.5 511.5,70.5C 504.456,83.047 494.789,93.2137 482.5,101C 466.553,109.39 449.553,113.724 431.5,114C 407.692,132.801 381.359,137.468 352.5,128C 341.791,123.565 331.958,117.732 323,110.5C 318.525,100.784 321.525,94.7842 332,92.5C 342.261,98.42 352.761,103.92 363.5,109C 385.416,114.772 404.416,109.772 420.5,94C 437.128,93.5897 453.128,90.2563 468.5,84C 480.056,78.1108 488.556,69.2775 494,57.5C 500.984,53.5277 506.818,54.861 511.5,61.5 Z"/></g>
<g><path style="opacity:0.957" fill="#FFFFFF" d="M 243.5,511.5 C 203.5,511.5 163.5,511.5 123.5,511.5C 92.0908,510.547 60.7575,507.38 29.5,502C 19.4092,500.313 10.5759,496.146 3,489.5C 1.5415,487.568 0.374833,485.568 -0.5,483.5C -0.5,479.5 -0.5,475.5 -0.5,471.5C 17.789,426.575 36.9557,381.908 57,337.5C 66.2539,316.405 73.9206,294.739 80,272.5C 80.5,236.168 80.6667,199.835 80.5,163.5C 76.1539,163.666 71.8206,163.499 67.5,163C 61.102,159.473 59.2686,154.307 62,147.5C 63.6374,145.19 65.804,143.69 68.5,143C 145.5,142.333 222.5,142.333 299.5,143C 304.614,144.616 307.281,148.116 307.5,153.5C 306.739,157.866 304.406,161.033 300.5,163C 295.845,163.499 291.179,163.666 286.5,163.5C 286.333,198.835 286.5,234.168 287,269.5C 287.842,280.709 289.842,291.709 293,302.5C 298.165,319.159 304.165,335.493 311,351.5C 328.122,388.411 345.788,425.077 364,461.5C 373.557,481.886 367.39,494.719 345.5,500C 335.632,502.645 325.632,504.645 315.5,506C 291.394,508.504 267.394,510.338 243.5,511.5 Z M 94.5,299.5 C 96.1765,298.817 96.8432,297.483 96.5,295.5C 98.8035,287.284 100.637,278.951 102,270.5C 102.5,234.835 102.667,199.168 102.5,163.5C 156.833,163.5 211.167,163.5 265.5,163.5C 265.333,201.501 265.5,239.501 266,277.5C 270.974,307.754 279.974,336.754 293,364.5C 310.978,401.621 328.811,438.788 346.5,476C 340.858,478.914 334.858,480.914 328.5,482C 315.593,484.391 302.593,486.057 289.5,487C 218.834,491.659 148.167,491.659 77.5,487C 64.7469,485.988 52.0803,484.321 39.5,482C 33.5997,481.108 27.933,479.442 22.5,477C 21.9781,476.439 21.6448,475.772 21.5,475C 38.5545,433.171 56.3878,391.671 75,350.5C 82.0685,333.7 88.5685,316.7 94.5,299.5 Z"/></g>
<g><path style="opacity:0.107" fill="#151515" d="M 96.5,295.5 C 96.8432,297.483 96.1765,298.817 94.5,299.5C 94.2291,297.62 94.8958,296.287 96.5,295.5 Z"/></g>
<g><path style="opacity:0.963" fill="#FFFFFF" d="M 147.5,304.5 C 156.104,317.524 164.104,331.024 171.5,345C 163.377,350.746 159.044,358.579 158.5,368.5C 143.167,368.5 127.833,368.5 112.5,368.5C 113.246,340.995 124.913,319.662 147.5,304.5 Z"/></g>
<g><path style="opacity:0.962" fill="#FFFFFF" d="M 218.5,304.5 C 242.416,318.833 254.75,340.166 255.5,368.5C 240.167,368.5 224.833,368.5 209.5,368.5C 208.807,358.643 204.474,350.81 196.5,345C 204.074,331.602 211.408,318.102 218.5,304.5 Z"/></g>
<g><path style="opacity:0.912" fill="#FFFFFF" d="M 180.5,354.5 C 190.402,354.072 196.069,358.739 197.5,368.5C 195.013,380.742 188.013,384.575 176.5,380C 167.582,369.834 168.915,361.334 180.5,354.5 Z"/></g>
<g><path style="opacity:0.953" fill="#FFFFFF" d="M 169.5,391.5 C 174.021,393.088 178.687,394.088 183.5,394.5C 188.348,394.148 193.015,393.314 197.5,392C 204.54,404.582 211.707,417.082 219,429.5C 219.667,430.5 219.667,431.5 219,432.5C 195.11,445.91 171.276,445.744 147.5,432C 155.239,418.686 162.573,405.186 169.5,391.5 Z"/></g>
</svg>
