<svg xmlns="http://www.w3.org/2000/svg" viewBox="0 0 44 44"><title>sun@1x</title><g id="Layer_2" data-name="Layer 2"><g id="Weather"><g id="Sun_2x.png" data-name="Sun@2x.png"><path d="M8,22a1,1,0,0,0-1-1H1a1,1,0,0,0,0,2H7A1,1,0,0,0,8,22Zm2.69,9.9L6.44,36.14a1,1,0,0,0,1.41,1.41l4.24-4.24a1,1,0,1,0-1.41-1.42ZM33.31,12.1l4.24-4.24a1,1,0,1,0-1.41-1.41L31.9,10.69a1,1,0,1,0,1.41,1.41Zm-22.63,0a1,1,0,1,0,1.41-1.41L7.86,6.44A1,1,0,1,0,6.44,7.86ZM22,8a1,1,0,0,0,1-1V1a1,1,0,0,0-2,0V7A1,1,0,0,0,22,8ZM43,21H37a1,1,0,0,0,0,2h6a1,1,0,0,0,0-2ZM33.31,31.9a1,1,0,1,0-1.41,1.42l4.24,4.24a1,1,0,1,0,1.41-1.41ZM22,36a1,1,0,0,0-1,1v6a1,1,0,0,0,2,0V37A1,1,0,0,0,22,36Zm0-26A12,12,0,1,0,34,22,12,12,0,0,0,22,10Zm0,22A10,10,0,1,1,32,22,10,10,0,0,1,22,32Z"/></g></g></g></svg>