<?xml version="1.0" encoding="UTF-8"?> <svg xmlns="http://www.w3.org/2000/svg" width="94" height="80" viewBox="0 0 94 80" fill="none"><path d="M16.0079 58.3984V47.0698L11.1705 58.3984H8.58816L3.7903 47.1742V58.3984H0V40H4.17978L9.88358 53.2647L15.5874 40H19.7926L19.7672 58.3984H16.0079Z" fill="#003C69"></path><path d="M22.9478 41.4704C22.9513 40.9325 23.1649 40.4172 23.5429 40.0344C23.9209 39.6517 24.4335 39.4317 24.9713 39.4214C25.247 39.4112 25.5219 39.4567 25.7796 39.5551C26.0373 39.6535 26.2724 39.8029 26.4711 39.9943C26.6697 40.1857 26.8277 40.4152 26.9356 40.6691C27.0436 40.9229 27.0992 41.196 27.0992 41.4718C27.0992 41.7477 27.0436 42.0207 26.9356 42.2745C26.8277 42.5284 26.6697 42.7579 26.4711 42.9493C26.2724 43.1407 26.0373 43.2901 25.7796 43.3885C25.5219 43.4869 25.247 43.5324 24.9713 43.5222C24.4318 43.5155 23.9167 43.2963 23.5379 42.9121C23.159 42.528 22.947 42.0099 22.9478 41.4704ZM26.8651 45.1393V58.3871H23.1312V45.1506L26.8651 45.1393Z" fill="#003C69"></path><path d="M40.0844 48.4216H34.8547V54.0464C34.8547 54.8931 35.2498 55.308 35.9582 55.308C36.167 55.316 36.3752 55.2805 36.5696 55.2037C36.7639 55.1269 36.9402 55.0106 37.0871 54.8621L38.5575 57.5432C38.137 58.0174 37.0589 58.7794 35.089 58.7794C32.9864 58.7794 31.118 57.4134 31.118 54.625V48.4216H28.9082V45.1506H31.1152V41.7075H34.8491V45.1506H40.0844V41.7075H43.8182V45.1506H46.9707V48.4216H43.8182V54.0464C43.8182 54.8931 44.2134 55.308 44.9217 55.308C45.1306 55.316 45.3387 55.2805 45.5331 55.2037C45.7274 55.1269 45.9037 55.0106 46.0507 54.8621L47.5211 57.5432C47.1005 58.0174 46.0224 58.7794 44.0525 58.7794C41.9499 58.7794 40.0816 57.4134 40.0816 54.625L40.0844 48.4216Z" fill="#003C69"></path><path d="M55.4889 55.7172C57.2246 55.7172 58.091 54.6673 58.3535 53.9843L61.458 54.9044C60.6452 57.1114 58.7514 58.7681 55.4917 58.7681C51.8228 58.7681 48.7183 55.9825 48.7183 51.7745C48.7183 47.6738 51.7155 44.7838 55.4748 44.7838C59.3921 44.7838 61.7571 47.6484 61.7571 51.6701V52.9373H52.2292C52.3416 53.7178 52.7346 54.4305 53.3346 54.9422C53.9346 55.4539 54.7004 55.7294 55.4889 55.7172V55.7172ZM55.4889 47.7528C54.7192 47.7197 53.9642 47.971 53.3678 48.4586C52.7713 48.9463 52.3751 49.6363 52.2546 50.3972H58.5115C58.444 49.6525 58.0924 48.9623 57.5296 48.4699C56.9668 47.9775 56.236 47.7207 55.4889 47.7528V47.7528Z" fill="#003C69"></path><path d="M31.1497 16.8122C36.591 16.8122 39.8761 20.5433 39.8761 26.01C39.8761 31.7928 35.8798 35.2106 31.1271 35.2106H24.4214V16.8122H31.1497ZM36.0915 25.9846C36.0915 22.9083 34.9626 20.2272 30.8082 20.2272H28.2061V31.7985H31.0453C34.8356 31.7703 36.0915 28.8125 36.0915 25.9733V25.9846Z" fill="#003C69"></path><path d="M42.3735 18.2714C42.3771 17.7334 42.5907 17.2182 42.9687 16.8354C43.3467 16.4526 43.8593 16.2327 44.3971 16.2224C44.6728 16.2122 44.9477 16.2576 45.2054 16.3561C45.463 16.4545 45.6982 16.6039 45.8969 16.7953C46.0955 16.9867 46.2535 17.2162 46.3614 17.47C46.4694 17.7239 46.525 17.9969 46.525 18.2728C46.525 18.5486 46.4694 18.8216 46.3614 19.0755C46.2535 19.3294 46.0955 19.5588 45.8969 19.7503C45.6982 19.9417 45.463 20.091 45.2054 20.1895C44.9477 20.2879 44.6728 20.3334 44.3971 20.3231C43.8576 20.3165 43.3425 20.0972 42.9637 19.7131C42.5848 19.329 42.3728 18.8109 42.3735 18.2714V18.2714ZM46.2909 21.9403V35.188H42.557V21.9516L46.2909 21.9403Z" fill="#003C69"></path><path d="M55.4883 32.5182C57.224 32.5182 58.0904 31.4683 58.3529 30.7825L61.4574 31.7025C60.6417 33.9124 58.748 35.569 55.4883 35.569C51.8193 35.569 48.7148 32.7806 48.7148 28.5755C48.7148 24.4747 51.7121 21.5847 55.4713 21.5847C59.3886 21.5847 61.7537 24.4493 61.7537 28.471V29.7326H52.2286C52.3398 30.5141 52.7322 31.2282 53.3323 31.741C53.9324 32.2538 54.699 32.5302 55.4883 32.5182V32.5182ZM55.4883 24.5537C54.7208 24.5197 53.9676 24.7688 53.3718 25.2538C52.776 25.7387 52.3792 26.4257 52.2568 27.1841H58.5109C58.44 26.4419 58.0869 25.7552 57.5245 25.2657C56.962 24.7763 56.2332 24.5214 55.4883 24.5537V24.5537Z" fill="#003C69"></path><path d="M69.7441 72.3291L78.3238 80C88.162 68.9991 93.601 54.7584 93.601 40C93.601 25.2416 88.162 11.0009 78.3238 0L69.7441 7.67092C77.399 16.7038 81.6004 28.1598 81.6004 40C81.6004 51.8402 77.399 63.2962 69.7441 72.3291V72.3291Z" fill="#FF9B00"></path></svg> 