<svg version="1.1" id="Layer_1"
	xmlns="http://www.w3.org/2000/svg"
	xmlns:xlink="http://www.w3.org/1999/xlink" x="0px" y="0px" width="100%" viewBox="0 0 1824 480" enable-background="new 0 0 1824 480" xml:space="preserve">

	<path fill="#000000" opacity="1.000000" stroke="none" d="M824.993286,274.902557 
	C823.319275,272.600586 822.087341,269.685699 819.893982,268.103607 
	C810.758728,261.514008 800.638184,262.595825 791.142700,266.605988 
	C783.219299,269.952271 779.599915,277.113647 778.518677,285.770905 
	C777.859680,291.047272 779.966125,297.946350 784.246399,301.046204 
	C791.490784,306.292755 799.593262,306.973297 807.830139,304.895905 
	C821.164062,301.532959 828.931580,289.504608 824.993286,274.902557 "/>
	<path fill="#000000" opacity="1.000000" stroke="none" d="
M0.999998,386.468658 
	C2.326038,379.961884 3.530888,373.894104 5.000546,367.891144 
	C9.663713,348.844055 18.010080,331.784332 30.700262,316.578583 
	C46.912411,297.152649 67.596077,285.742065 91.956123,281.261902 
	C104.992844,278.864258 118.352814,279.319794 131.692169,281.715057 
	C143.697250,283.870728 154.621399,287.761902 164.494766,294.869446 
	C176.459610,303.482574 182.670868,315.588928 185.998093,329.521454 
	C186.295258,330.765839 186.565231,332.016754 186.899811,333.494110 
	C179.875809,334.327789 172.832321,335.168427 165.787613,335.998505 
	C160.129105,336.665314 154.471237,337.338470 148.808914,337.971466 
	C145.670013,338.322388 143.543137,337.602417 141.602478,334.414215 
	C135.718079,324.746948 127.009796,319.535614 115.518677,317.818970 
	C101.158775,315.673706 88.654327,319.696686 76.929749,327.088959 
	C68.667030,332.298523 62.897156,340.005096 57.945576,348.360626 
	C47.184357,366.519501 42.376312,386.228821 44.160480,407.116272 
	C45.810127,426.428802 58.725086,441.854492 80.533066,442.050751 
	C92.256668,442.156250 103.315842,440.819702 113.595123,434.209229 
	C126.374252,425.991058 133.506485,414.254211 137.748840,399.961670 
	C122.567673,399.961670 107.587105,399.961670 91.579475,399.961670 
	C93.532295,388.595032 95.431824,377.538544 97.374313,366.232056 
	C127.324120,366.232056 157.421631,366.232056 188.415466,366.232056 
	C186.867065,375.433472 185.858307,384.575958 183.721603,393.446777 
	C179.711273,410.096100 173.514954,425.860931 163.065170,439.741608 
	C154.914398,450.568451 145.398148,459.638611 133.437012,466.253601 
	C118.860947,474.314697 103.395767,478.098389 86.793701,479.207489 
	C70.566170,480.291595 55.051624,478.381256 40.412560,471.656342 
	C20.134829,462.341064 8.217781,445.949371 3.037689,424.474609 
	C2.392279,421.798981 2.188452,419.016815 1.390006,416.142029 
	C1.000000,406.312439 1.000000,396.624878 0.999998,386.468658 
z"/>
	<path fill="#000000" opacity="1.000000" stroke="none" d="
M902.466858,481.000000 
	C898.384460,479.994995 894.704895,479.175110 891.164856,477.951630 
	C878.552185,473.592499 869.317017,465.766327 865.303467,451.303925 
	C862.949158,460.411804 860.848999,468.536346 858.705017,476.830627 
	C844.953979,476.830627 831.161072,476.830627 817.034180,476.830627 
	C831.406250,409.250244 845.742737,341.837006 860.123230,274.216949 
	C873.908325,274.216949 887.691956,274.216949 901.961731,274.216949 
	C896.848755,297.641693 891.755859,320.974243 886.663025,344.306793 
	C895.868286,334.268768 905.817322,325.870178 919.346619,322.972717 
	C942.327942,318.051025 963.643921,320.291016 980.281799,338.956024 
	C986.886108,346.364960 990.505310,355.559631 992.006775,365.475128 
	C994.824890,384.084961 993.016113,402.378937 986.859680,420.007690 
	C978.916992,442.751556 965.436279,461.434113 943.637268,472.964478 
	C935.781128,477.119873 927.369446,479.993713 918.147339,480.605927 
	C912.977905,481.000000 907.955811,481.000000 902.466858,481.000000 
M886.025757,372.703552 
	C884.338196,375.603821 882.733215,378.556000 880.947632,381.394623 
	C875.496216,390.061188 873.455566,399.913513 872.190491,409.729187 
	C870.830872,420.278015 872.968140,430.538544 881.412170,437.985321 
	C893.808228,448.917358 907.874573,447.977692 921.706177,441.544525 
	C934.536987,435.576843 942.581726,424.830566 946.936340,411.514282 
	C950.190918,401.561768 952.843811,391.703125 951.252319,380.710907 
	C948.703796,363.108063 935.663635,355.396454 921.601501,355.121094 
	C907.246277,354.840088 895.695557,361.353119 886.025757,372.703552 
z"/>
	<path fill="#000000" opacity="1.000000" stroke="none" d="
M1344.467529,481.000000 
	C1337.688721,479.002319 1331.083130,477.640625 1325.124390,474.881592 
	C1310.298706,468.017212 1301.581421,455.880096 1298.052979,440.147217 
	C1292.963501,417.453857 1296.728882,395.614960 1304.933350,374.214172 
	C1310.492920,359.712402 1319.436401,347.669495 1331.005981,337.589050 
	C1340.010132,329.743744 1350.664062,324.517822 1362.361450,322.424957 
	C1377.091797,319.789520 1391.804199,319.180328 1405.717163,326.885132 
	C1413.429077,331.155792 1418.964966,336.937500 1422.060181,345.155945 
	C1422.548340,346.451904 1423.472900,347.583496 1424.487549,349.278839 
	C1426.534180,340.135132 1428.437134,331.633087 1430.341797,323.123474 
	C1444.234253,323.123474 1457.870361,323.123474 1472.265015,323.123474 
	C1461.293579,374.493652 1450.379639,425.593842 1439.439941,476.814972 
	C1425.757812,476.814972 1411.972290,476.814972 1397.869141,476.814972 
	C1399.546753,469.575867 1401.168091,462.579437 1403.038330,454.508942 
	C1391.961792,468.830994 1378.744385,478.121704 1361.135498,480.615112 
	C1355.645020,481.000000 1350.290161,481.000000 1344.467529,481.000000 
M1340.451050,394.038422 
	C1339.352539,399.229370 1337.727051,404.374573 1337.271118,409.621338 
	C1336.455688,419.004852 1337.827759,428.009949 1344.147339,435.669403 
	C1355.377686,449.280579 1376.464478,447.936676 1389.444824,440.073364 
	C1401.933838,432.507782 1408.810303,420.949493 1412.967163,407.469574 
	C1416.133301,397.202606 1418.632324,386.759583 1415.499634,376.018341 
	C1410.404297,358.546661 1392.155151,351.738586 1374.729126,356.740143 
	C1356.064941,362.097015 1346.177734,375.600159 1340.451050,394.038422 
z"/>
	<path fill="#000000" opacity="1.000000" stroke="none" d="
M361.454102,481.000000 
	C357.613892,480.340240 354.245026,479.570038 350.838776,479.039490 
	C334.528564,476.499146 323.049103,467.666718 318.588318,451.780823 
	C316.402771,443.997498 314.980133,435.724304 316.804779,427.158112 
	C319.432526,414.821808 320.721527,402.206665 323.067505,389.802399 
	C325.882874,374.916534 329.192230,360.123810 332.320282,345.297607 
	C333.877106,337.918640 335.506805,330.555084 337.105530,323.175232 
	C351.234253,323.175232 365.026398,323.175232 378.847595,323.175232 
	C374.873260,341.937866 370.949615,360.529724 366.992645,379.114471 
	C364.879364,389.039764 362.688904,398.948608 360.570435,408.872803 
	C358.995117,416.252747 357.871552,423.708344 360.566315,431.025513 
	C364.487061,441.671875 371.979980,444.589752 382.763702,444.827759 
	C405.109344,445.320923 416.075470,435.550171 422.771362,415.125427 
	C427.662445,400.205994 430.484100,384.593048 433.953796,369.227264 
	C437.077545,355.393616 439.839844,341.478180 442.724945,327.591187 
	C443.016052,326.189819 443.054688,324.735962 443.224152,323.181366 
	C457.167389,323.181366 470.942993,323.181366 485.339355,323.181366 
	C474.408813,374.505127 463.541626,425.531342 452.624237,476.793335 
	C439.022827,476.793335 425.229919,476.793335 411.357086,476.793335 
	C412.899445,470.093781 414.442902,463.389526 416.299255,455.325989 
	C403.831207,469.826141 389.849945,479.348175 371.148254,480.605225 
	C367.969391,481.000000 364.938812,481.000000 361.454102,481.000000 
z"/>
	<path fill="#1DA0DA" opacity="1.000000" stroke="none" d="
M1770.468384,481.000000 
	C1761.389160,477.919922 1753.236450,474.317444 1746.672119,467.433105 
	C1734.984497,455.175720 1731.543701,440.706207 1735.234863,424.769897 
	C1739.619385,405.839630 1752.240601,394.033264 1771.214233,391.181610 
	C1792.174072,388.031403 1812.841187,395.658936 1822.099365,419.283447 
	C1822.811401,421.100586 1823.580688,422.895325 1824.661621,424.850220 
	C1825.000000,431.687653 1825.000000,438.375275 1824.652100,445.692108 
	C1822.941895,454.154419 1819.034424,460.672333 1813.929077,466.602997 
	C1807.526245,474.040924 1798.886230,477.714264 1790.000000,481.000000 
	C1783.645630,481.000000 1777.291138,481.000000 1770.468384,481.000000 
z"/>

	<path fill="#000000" opacity="1.000000" stroke="none" d="
M1056.211670,431.573120 
	C1061.040039,442.250000 1069.361572,446.905304 1080.323608,448.057251 
	C1095.609375,449.663513 1108.816040,445.834564 1119.272461,434.182678 
	C1121.200317,432.034332 1122.804932,429.595825 1124.675415,427.137939 
	C1136.974854,429.839447 1149.460693,432.581848 1162.169678,435.373322 
	C1153.594482,451.199951 1142.075073,463.570465 1126.109009,471.373322 
	C1114.785400,476.907257 1102.751099,479.731934 1090.110352,480.019897 
	C1075.008911,480.363953 1060.187622,479.686249 1046.079590,473.114899 
	C1033.158691,467.096527 1023.379517,458.146729 1018.088806,444.929901 
	C1010.443726,425.831604 1011.822205,406.352661 1017.068665,386.981598 
	C1021.465759,370.746643 1029.424561,356.425262 1041.739258,344.819519 
	C1054.860718,332.453644 1070.132202,324.259155 1088.260986,321.997192 
	C1104.648804,319.952393 1120.929443,319.844666 1136.566528,326.048584 
	C1155.286011,333.475433 1166.665894,346.981964 1170.057129,367.127869 
	C1172.491821,381.591003 1170.995361,395.707245 1167.609253,409.977966 
	C1129.865845,409.977966 1092.237793,409.977966 1054.232910,409.977966 
	C1053.650391,417.303070 1052.951538,424.389618 1056.211670,431.573120 
M1071.524414,383.000000 
	C1092.265381,383.000000 1113.006470,383.000000 1134.321655,383.000000 
	C1133.954956,377.896210 1134.299438,373.172089 1133.178955,368.825653 
	C1129.342896,353.946106 1119.054443,350.991760 1106.583862,350.157715 
	C1095.942749,349.446075 1085.430664,351.862610 1076.769775,358.230347 
	C1068.607056,364.231873 1062.269531,372.126465 1059.847290,383.000000 
	C1063.629517,383.000000 1067.082031,383.000000 1071.524414,383.000000 
z"/>
	<path fill="#000000" opacity="1.000000" stroke="none" d="
M1653.886475,443.010193 
	C1659.068359,438.261993 1663.833496,433.509735 1668.709229,428.873932 
	C1669.512207,428.110504 1670.927856,427.264160 1671.846558,427.459961 
	C1683.580078,429.960663 1695.274658,432.644531 1707.422119,435.381714 
	C1697.764526,453.472382 1684.239258,466.405914 1665.509644,474.087097 
	C1649.520508,480.644470 1632.816895,481.074921 1616.225098,479.759552 
	C1596.398193,478.187714 1578.838379,470.336365 1567.841064,452.909576 
	C1563.358521,445.806366 1560.498657,437.017639 1559.288818,428.650482 
	C1556.896851,412.107056 1559.161621,395.720337 1564.939575,379.877014 
	C1568.965576,368.837463 1574.645752,358.911499 1582.393433,350.029572 
	C1593.992676,336.732239 1608.233643,327.346130 1625.263916,323.545319 
	C1645.901611,318.939423 1666.800049,318.605072 1686.514160,328.035919 
	C1703.966309,336.384674 1713.246460,350.725189 1716.127563,369.827576 
	C1717.975952,382.082855 1716.239624,393.863281 1714.114624,405.795685 
	C1713.454956,409.499969 1711.779175,410.060364 1708.559814,410.052399 
	C1674.412720,409.967865 1640.265259,409.999939 1606.117920,410.000061 
	C1599.000000,410.000092 1599.043701,410.000671 1598.989868,417.425751 
	C1598.907349,428.788940 1602.813354,438.322266 1612.845703,444.132751 
	C1619.561035,448.022095 1626.949951,449.445129 1635.103271,448.264130 
	C1641.591675,447.324310 1647.858643,446.548431 1653.886475,443.010193 
M1606.451172,379.037476 
	C1606.129517,380.319855 1605.807739,381.602234 1605.512817,382.777588 
	C1630.445801,382.777588 1655.055908,382.777588 1679.635620,382.777588 
	C1681.351685,369.250580 1676.670654,358.878387 1667.345459,354.058472 
	C1659.590454,350.050171 1651.275635,349.394104 1642.371826,350.815094 
	C1625.220581,353.552338 1613.119873,361.972961 1606.451172,379.037476 
z"/>
	<path fill="#000000" opacity="1.000000" stroke="none" d="
M557.554321,343.794983 
	C563.824219,336.996460 570.255676,330.247925 578.939453,326.621094 
	C598.628540,318.397736 618.404846,317.745026 637.572449,328.055328 
	C648.706909,334.044586 653.041077,344.742035 655.007629,356.636383 
	C657.763733,373.306122 653.606934,389.288177 650.280518,405.363525 
	C646.491211,423.675781 642.762268,442.000519 638.993347,460.317017 
	C638.019104,465.051880 637.165833,469.824646 635.861816,474.469055 
	C635.559509,475.545837 633.648132,476.874420 632.460571,476.890839 
	C619.820923,477.065887 607.177979,476.999481 593.616638,476.999481 
	C594.876953,470.542755 596.001282,464.453339 597.261353,458.392181 
	C600.475830,442.930023 603.787903,427.488129 606.988098,412.023041 
	C609.047119,402.073029 610.934204,392.087524 612.976318,382.133911 
	C615.292358,370.845459 606.579041,359.188782 594.684631,356.923187 
	C580.439758,354.209930 567.992371,357.287720 558.466187,368.279449 
	C551.636780,376.159576 548.319458,386.126251 546.060364,396.198883 
	C540.042542,423.031708 534.325378,449.931976 528.470947,476.887207 
	C514.797974,476.887207 501.168274,476.887207 486.695801,476.887207 
	C497.640289,425.529663 508.526093,374.447571 519.452393,323.175446 
	C533.120178,323.175446 546.898682,323.175446 560.934326,323.175446 
	C559.596497,329.595917 558.295349,335.840576 556.675537,342.602997 
	C556.316467,343.660400 556.276062,344.200073 556.235596,344.739685 
	C556.675171,344.424774 557.114746,344.109894 557.554321,343.794983 
z"/>
	<path fill="#000000" opacity="1.000000" stroke="none" d="
M710.001343,466.062164 
	C709.273926,469.935425 708.547852,473.370483 707.822449,476.802490 
	C693.766113,476.802490 679.992981,476.802490 665.655762,476.802490 
	C667.329651,468.976379 668.966125,461.453735 670.544678,453.918945 
	C674.045898,437.206787 677.450928,420.474152 681.020508,403.776703 
	C684.789368,386.147491 688.764038,368.562286 692.536438,350.933807 
	C695.773254,335.807953 698.860474,320.650055 701.996826,305.502777 
	C704.022339,295.720123 705.942383,285.914215 708.147156,276.172455 
	C708.355591,275.251373 710.259155,274.106201 711.387085,274.093750 
	C724.521179,273.948395 737.657410,274.000732 750.858704,274.000732 
	C746.856995,293.067719 742.931091,311.804535 738.991333,330.538452 
	C732.328613,362.220184 725.708618,393.911041 718.964966,425.575562 
	C716.115723,438.954437 712.998230,452.276215 710.001343,466.062164 
z"/>
	<path fill="#000000" opacity="1.000000" stroke="none" d="
M1544.727295,339.636597 
	C1540.074341,360.478485 1535.574951,380.934906 1531.260010,401.430176 
	C1527.074219,421.312103 1523.099976,441.238464 1518.982910,461.135010 
	C1517.910034,466.319489 1516.651245,471.465515 1515.431763,476.831604 
	C1501.660522,476.831604 1487.697021,476.831604 1473.323730,476.831604 
	C1487.668213,409.289398 1502.003174,341.791595 1516.359131,274.195587 
	C1530.164795,274.195587 1543.938477,274.195587 1558.397339,274.195587 
	C1557.085449,280.624878 1555.851440,286.744080 1554.586670,292.856964 
	C1551.385620,308.328857 1548.170776,323.797913 1544.727295,339.636597 
z"/>
	<path fill="#000000" opacity="1.000000" stroke="none" d="
M207.018982,477.000000 
	C202.722748,477.000000 198.922424,477.000000 194.777817,477.000000 
	C198.441086,459.988312 202.046310,443.467468 205.547638,426.924652 
	C209.086136,410.206268 212.473877,393.455963 216.015564,376.738281 
	C219.621979,359.715179 223.287323,342.703918 227.114059,325.729645 
	C227.360901,324.634735 229.203293,323.134308 230.322128,323.118195 
	C243.122635,322.933685 255.926773,323.000793 269.285400,323.000793 
	C268.091431,328.806610 266.989685,334.164124 265.677551,340.544586 
	C277.754974,325.305634 299.492493,317.715424 319.983246,322.473114 
	C318.329407,328.677063 316.558685,334.850616 315.055969,341.088684 
	C313.556641,347.312866 312.325928,353.601715 310.948242,359.997833 
	C305.043549,359.997833 299.536652,359.629944 294.094452,360.067444 
	C278.330902,361.334595 267.664368,370.332764 260.144043,383.555634 
	C253.017014,396.086914 251.161041,410.272614 248.045868,424.026794 
	C245.055725,437.229004 242.453445,450.518738 239.636581,463.760620 
	C238.707428,468.128510 237.640793,472.467133 236.595322,477.000000 
	C226.812943,477.000000 217.163895,477.000000 207.018982,477.000000 
z"/>
	<path fill="#000000" opacity="1.000000" stroke="none" d="
M1253.589844,338.767578 
	C1261.389160,330.310608 1270.860107,324.519409 1282.162354,322.486298 
	C1289.941528,321.086914 1297.938721,319.379608 1306.365112,322.609406 
	C1304.871216,329.229309 1303.469604,335.819153 1301.877319,342.362640 
	C1300.815186,346.728271 1298.804688,350.971954 1298.441406,355.371185 
	C1297.987671,360.867767 1294.560059,360.424469 1291.197388,359.919037 
	C1274.368042,357.389404 1261.262085,364.183685 1251.156738,376.787018 
	C1242.627686,387.424561 1239.596069,400.576660 1236.956787,413.735107 
	C1234.327393,426.843658 1231.357300,439.883911 1228.527588,452.952179 
	C1227.027954,459.878143 1225.630981,466.830841 1223.890503,473.696136 
	C1223.564941,474.980377 1221.845947,476.837769 1220.742798,476.856964 
	C1207.946777,477.079315 1195.145630,476.999084 1181.429932,476.999084 
	C1192.438232,425.367493 1203.334961,374.258972 1214.216064,323.224213 
	C1228.322388,323.224213 1242.092651,323.224213 1256.037354,323.224213 
	C1254.986450,328.016113 1253.990234,332.558258 1252.642090,337.643799 
	C1252.246826,339.021332 1252.203735,339.855499 1252.105103,341.765015 
	C1252.931396,340.096832 1253.260620,339.432220 1253.589844,338.767578 
z"/>
	<path fill="#000000" opacity="1.000000" stroke="none" d="
M809.283447,353.341187 
	C806.495361,365.851044 803.951050,378.000031 801.406738,390.149048 
	C797.937500,406.714691 794.516663,423.290680 790.983032,439.842590 
	C788.338806,452.228180 785.549011,464.582733 782.842957,476.864929 
	C768.701294,476.864929 755.065430,476.864929 740.852417,476.864929 
	C743.072571,466.468079 745.254517,456.314240 747.407288,446.154175 
	C750.948669,429.440002 754.448364,412.717041 758.008240,396.006805 
	C761.130310,381.351288 764.318298,366.709869 767.462891,352.059113 
	C769.322937,343.392883 771.049561,334.695251 773.119568,326.079834 
	C773.413757,324.855438 775.301208,323.153198 776.475952,323.133362 
	C789.118225,322.920258 801.765442,323.000610 815.541931,323.000610 
	C813.483643,333.259888 811.505371,343.120117 809.283447,353.341187 
z"/>
	<path fill="#90C63E" opacity="1.000000" stroke="none" d="
M392.224670,242.358215 
	C397.417511,227.796509 407.946167,218.789886 422.244415,217.377136 
	C441.338623,215.490509 460.702881,216.331436 479.951691,216.036118 
	C480.712219,216.024429 481.478333,216.374969 482.760406,216.680222 
	C480.356384,228.185196 478.030304,239.460983 475.635132,250.722061 
	C474.343628,256.794159 473.225983,262.924377 471.527161,268.885040 
	C464.002838,295.285400 438.864105,304.148499 415.627686,296.687195 
	C411.080872,295.227173 407.133606,291.900177 402.754364,289.343536 
	C396.277405,294.657562 389.407410,299.987732 382.924072,305.752716 
	C380.027100,308.328766 378.271790,309.230499 376.295898,305.087128 
	C375.615479,303.660370 374.121521,302.621613 372.392700,300.748444 
	C380.237213,294.158752 387.973328,287.660156 395.947937,280.961182 
	C389.385895,268.944275 386.902222,256.198975 392.224670,242.358215 
M423.489410,268.936584 
	C432.869629,260.311066 442.249847,251.685516 451.630035,243.059982 
	C451.248077,242.604156 450.866089,242.148331 450.484100,241.692505 
	C437.292206,251.326553 424.100311,260.960602 410.741913,270.716278 
	C412.405792,273.001984 413.818207,274.942169 415.366058,277.068481 
	C418.054779,274.370789 420.517090,271.900238 423.489410,268.936584 
M453.587738,239.241852 
	C453.513977,239.489563 453.440216,239.737289 453.366486,239.985001 
	C453.592072,240.035660 453.817657,240.086319 454.043243,240.136993 
	C454.096588,239.828720 454.149933,239.520462 453.587738,239.241852 
z"/>



</svg>