<?xml version="1.0" encoding="utf-8"?>
<!-- Generator: Adobe Illustrator 17.0.0, SVG Export Plug-In . SVG Version: 6.00 Build 0)  -->
<!DOCTYPE svg PUBLIC "-//W3C//DTD SVG 1.1//EN" "http://www.w3.org/Graphics/SVG/1.1/DTD/svg11.dtd">
<svg version="1.1"
	xmlns="http://www.w3.org/2000/svg"
	xmlns:xlink="http://www.w3.org/1999/xlink" x="0px" y="0px" width="149.588px" height="23.966px" viewBox="0 0 149.588 23.966" enable-background="new 0 0 149.588 23.966" xml:space="preserve">
	<g id="Hintergrund" display="none">
		<rect x="-54.093" y="-43.642" display="inline" fill="#76B82A" width="226" height="246.5"/>
	</g>
	<g id="Ebene_1">
		<path display="none" fill="#284E37" d="M228.407,30.322c0,2.661-2.157,4.818-4.818,4.818H66.97c-2.661,0-4.818-2.157-4.818-4.818
		V1.51c0-2.661,2.157-4.817,4.818-4.817h156.619c2.661,0,4.818,2.157,4.818,4.817V30.322z"/>
		<g>
			<g>
				<path fill="#000" d="M14.442,19.461c-1.163,0.775-2.325,1.192-3.428,1.192c-0.238,0-0.327-0.06-0.327-0.299v-2.532
				c0-0.358,0.327-0.298,1.103-0.477c0.864-0.208,1.46-0.984,1.46-1.938V0.298C13.25,0.09,13.339,0,13.548,0h2.801
				c0.178,0,0.298,0.09,0.298,0.298V15.14C16.648,16.898,15.814,18.537,14.442,19.461z"/>
				<path fill="#000" d="M29.968,13.649h-2.534c-0.417,0-0.238-0.595-0.506-0.595c-0.358,0-1.074,0.595-2.415,0.595
				c-3.099,0-5.334-2.146-5.334-5.275V0.298C19.179,0.09,19.269,0,19.477,0h2.832c0.179,0,0.297,0.09,0.297,0.298v8.077
				c0,1.222,0.894,2.146,2.116,2.146c1.222,0,2.147-0.954,2.147-2.146V0.298C26.869,0.09,26.958,0,27.166,0h2.802
				c0.178,0,0.297,0.09,0.297,0.298v13.054C30.265,13.56,30.176,13.649,29.968,13.649z"/>
				<path fill="#000" d="M43.612,13.649h-2.831c-0.208,0-0.297-0.089-0.297-0.298V5.245c0-1.192-0.894-2.116-2.116-2.116
				c-1.252,0-2.146,0.924-2.146,2.116v8.106c0,0.208-0.09,0.298-0.298,0.298h-2.802c-0.208,0-0.297-0.089-0.297-0.298V0.298
				C32.825,0.09,32.914,0,33.122,0h2.534c0.447,0,0.268,0.596,0.506,0.596C36.521,0.596,37.235,0,38.606,0
				c3.04,0,5.305,2.145,5.305,5.245v8.106C43.911,13.56,43.821,13.649,43.612,13.649z"/>
				<path fill="#000" d="M53.663,20.354h-3.814c-2.562,0-4.291-1.698-4.291-3.993v-0.566c0-1.132,0.506-1.728,1.102-2.444
				c0.299-0.328,0.507-0.477,0.507-0.656c0-0.179-0.298-0.626-0.298-1.43c0-0.865,0.418-1.431,0.418-1.669
				c0-0.09-0.03-0.149-0.09-0.208c-0.716-0.984-1.639-1.878-1.639-3.874V5.245c0-2.98,2.354-5.245,5.363-5.245
				c1.312,0,2.086,0.596,2.444,0.596C53.603,0.596,53.394,0,53.842,0h2.534c0.178,0,0.297,0.09,0.297,0.298v5.216
				c0,3.129-2.265,5.275-5.931,5.275h-0.446c-0.149,0.148-0.209,0.297-0.209,0.476c0,0.179,0.09,0.357,0.238,0.536h3.338
				c2.562,0,4.291,1.699,4.291,3.994v0.566C57.954,18.657,56.196,20.354,53.663,20.354z M53.246,5.245
				c0-1.192-0.894-2.116-2.116-2.116c-1.252,0-2.146,0.924-2.146,2.116v0.269c0,1.192,0.894,2.145,2.146,2.145
				c1.192,0,2.116-0.953,2.116-2.145V5.245z M54.528,15.795c0-0.506-0.358-0.864-0.865-0.864h-3.814
				c-0.507,0-0.865,0.358-0.865,0.864v0.566c0,0.507,0.358,0.865,0.865,0.865h3.814c0.477,0,0.865-0.388,0.865-0.865V15.795z"/>
				<path fill="#000" d="M69.213,7.689h-7.094c-0.208,0-0.298,0.089-0.298,0.298v0.686c0,1.192,0.894,2.146,2.145,2.146
				c0.865,0,1.401-0.477,1.907-1.431c0.18-0.358,0.299-0.567,0.449-0.567c0.059,0,0.088,0,0.147,0.03l2.594,1.282
				c0.119,0.059,0.179,0.149,0.179,0.239c0,0.327-0.447,1.131-1.46,2.205c-0.865,0.894-2.147,1.371-3.816,1.371
				c-3.367,0-5.572-2.116-5.572-5.275V4.977c0-0.924,0.298-1.937,0.834-2.742c1.074-1.608,2.803-2.532,4.738-2.532
				c1.907,0,3.667,0.924,4.71,2.532c0.537,0.805,0.835,1.818,0.835,2.742v2.414C69.511,7.6,69.421,7.689,69.213,7.689z M66.184,4.53
				c0-0.804-0.984-1.698-2.057-1.698c-1.132,0-2.086,0.894-2.086,1.729c0,0.178,0.089,0.268,0.298,0.268h3.547
				C66.094,4.828,66.184,4.738,66.184,4.53z"/>
				<path fill="#000" d="M84.426,20.354h-3.814c-2.562,0-4.291-1.698-4.291-3.993v-0.566c0-1.132,0.506-1.728,1.103-2.444
				c0.298-0.328,0.507-0.477,0.507-0.656c0-0.179-0.298-0.626-0.298-1.43c0-0.865,0.417-1.431,0.417-1.669
				c0-0.09-0.029-0.149-0.09-0.208C77.244,8.404,76.32,7.51,76.32,5.514V5.245C76.32,2.265,78.675,0,81.685,0
				c1.311,0,2.085,0.596,2.443,0.596C84.367,0.596,84.158,0,84.605,0h2.533c0.178,0,0.297,0.09,0.297,0.298v5.216
				c0,3.129-2.264,5.275-5.93,5.275h-0.447c-0.148,0.148-0.209,0.297-0.209,0.476c0,0.179,0.09,0.357,0.238,0.536h3.338
				c2.563,0,4.292,1.699,4.292,3.994v0.566C88.718,18.657,86.959,20.354,84.426,20.354z M84.009,5.245
				c0-1.192-0.894-2.116-2.114-2.116c-1.253,0-2.148,0.924-2.148,2.116v0.269c0,1.192,0.896,2.145,2.148,2.145
				c1.19,0,2.114-0.953,2.114-2.145V5.245z M85.291,15.795c0-0.506-0.357-0.864-0.865-0.864h-3.814
				c-0.506,0-0.865,0.358-0.865,0.864v0.566c0,0.507,0.359,0.865,0.865,0.865h3.814c0.479,0,0.865-0.388,0.865-0.865V15.795z"/>
				<path fill="#000" d="M97.267,3.755c-0.388,0-1.013-0.597-1.848-0.597c-1.162,0-2.057,0.924-2.057,2.086v8.106
				c0,0.208-0.089,0.298-0.298,0.298h-2.801c-0.21,0-0.299-0.089-0.299-0.298V0.298C89.965,0.09,90.054,0,90.264,0h2.533
				c0.207,0,0.297,0.06,0.297,0.268v0.417c0,0.179,0.089,0.268,0.269,0.298l0.18-0.09C94.316,0.298,95.031,0,95.806,0
				c1.044,0,1.669,0.238,1.669,0.537v2.891C97.475,3.636,97.386,3.755,97.267,3.755z"/>
				<path fill="#000" d="M110.062,13.649h-2.532c-0.418,0-0.239-0.595-0.508-0.595c-0.357,0-1.072,0.595-2.413,0.595
				c-3.1,0-5.334-2.146-5.334-5.275V0.298C99.275,0.09,99.364,0,99.572,0h2.832c0.178,0,0.298,0.09,0.298,0.298v8.077
				c0,1.222,0.894,2.146,2.115,2.146c1.223,0,2.146-0.954,2.146-2.146V0.298c0-0.208,0.089-0.298,0.298-0.298h2.801
				c0.179,0,0.299,0.09,0.299,0.298v13.054C110.361,13.56,110.271,13.649,110.062,13.649z"/>
				<path fill="#000" d="M123.184,7.689h-7.094c-0.208,0-0.298,0.089-0.298,0.298v0.686c0,1.192,0.894,2.146,2.146,2.146
				c0.865,0,1.4-0.477,1.908-1.431c0.178-0.358,0.298-0.567,0.446-0.567c0.061,0,0.09,0,0.149,0.03l2.593,1.282
				c0.119,0.059,0.179,0.149,0.179,0.239c0,0.327-0.447,1.131-1.46,2.205c-0.865,0.894-2.147,1.371-3.815,1.371
				c-3.367,0-5.573-2.116-5.573-5.275V4.977c0-0.924,0.299-1.937,0.835-2.742c1.073-1.608,2.801-2.532,4.738-2.532
				c1.908,0,3.666,0.924,4.709,2.532c0.537,0.805,0.835,1.818,0.835,2.742v2.414C123.481,7.6,123.392,7.689,123.184,7.689z
				 M119.995,4.53c0-0.804-0.984-1.698-2.058-1.698c-1.132,0-2.085,0.894-2.085,1.729c0,0.178,0.088,0.268,0.297,0.268h3.547
				C119.904,4.828,119.995,4.738,119.995,4.53z"/>
				<path fill="#000" d="M136.267,13.649h-2.832c-0.208,0-0.298-0.089-0.298-0.298V5.245c0-1.192-0.894-2.116-2.115-2.116
				c-1.252,0-2.146,0.924-2.146,2.116v8.106c0,0.208-0.089,0.298-0.298,0.298h-2.802c-0.208,0-0.298-0.089-0.298-0.298V0.298
				c0-0.208,0.09-0.298,0.298-0.298h2.533c0.447,0,0.269,0.596,0.508,0.596c0.357,0,1.072-0.596,2.443-0.596
				c3.039,0,5.304,2.145,5.304,5.245v8.106C136.563,13.56,136.476,13.649,136.267,13.649z"/>
				<path fill="#000" d="M149.289,7.689h-7.093c-0.208,0-0.298,0.089-0.298,0.298v0.686c0,1.192,0.895,2.146,2.146,2.146
				c0.864,0,1.401-0.477,1.908-1.431c0.178-0.358,0.298-0.567,0.446-0.567c0.06,0,0.09,0,0.149,0.03l2.593,1.282
				c0.119,0.059,0.179,0.149,0.179,0.239c0,0.327-0.447,1.131-1.46,2.205c-0.864,0.894-2.146,1.371-3.815,1.371
				c-3.367,0-5.573-2.116-5.573-5.275V4.977c0-0.924,0.299-1.937,0.836-2.742c1.071-1.608,2.8-2.532,4.737-2.532
				c1.908,0,3.666,0.924,4.709,2.532c0.536,0.805,0.835,1.818,0.835,2.742v2.414C149.588,7.6,149.498,7.689,149.289,7.689z
				 M146.101,4.53c0-0.804-0.983-1.698-2.057-1.698c-1.132,0-2.086,0.894-2.086,1.729c0,0.178,0.089,0.268,0.299,0.268h3.546
				C146.012,4.828,146.101,4.738,146.101,4.53z"/>
			</g>
		</g>
		<path display="none" fill="#284E37" d="M186.499,117.869c0,2.66-2.156,4.817-4.817,4.817H25.062c-2.66,0-4.817-2.157-4.817-4.817
		V89.057c0-2.66,2.157-4.817,4.817-4.817h156.62c2.661,0,4.817,2.157,4.817,4.817V117.869z"/>
		<g>
			<path fill="#000" d="M-21.05,108.108h-3.956c-2.659,0-4.451-1.762-4.451-4.142v-0.587c0-1.175,0.526-1.793,1.144-2.534
			c0.309-0.34,0.525-0.494,0.525-0.681c0-0.186-0.309-0.649-0.309-1.482c0-0.896,0.432-1.483,0.432-1.732
			c0-0.092-0.03-0.153-0.092-0.215c-0.742-1.021-1.7-1.947-1.7-4.019v-0.277c0-3.091,2.442-5.439,5.563-5.439
			c1.36,0,2.163,0.617,2.534,0.617c0.247,0,0.031-0.617,0.494-0.617h2.627c0.185,0,0.309,0.092,0.309,0.309v5.408
			c0,3.245-2.349,5.47-6.15,5.47h-0.463c-0.155,0.155-0.216,0.31-0.216,0.496c0,0.185,0.092,0.371,0.247,0.555h3.462
			c2.658,0,4.45,1.762,4.45,4.143v0.587C-16.6,106.347-18.423,108.108-21.05,108.108z M-21.483,92.439
			c0-1.237-0.927-2.194-2.194-2.194c-1.298,0-2.225,0.957-2.225,2.194v0.277c0,1.236,0.927,2.226,2.225,2.226
			c1.236,0,2.194-0.989,2.194-2.226V92.439z M-20.154,103.38c0-0.525-0.371-0.896-0.896-0.896h-3.956
			c-0.526,0-0.896,0.371-0.896,0.896v0.587c0,0.525,0.371,0.896,0.896,0.896h3.956c0.494,0,0.896-0.402,0.896-0.896V103.38z"/>
			<path fill="#000" d="M-12.366,101.154h-2.905c-0.216,0-0.309-0.093-0.309-0.309V87.309c0-0.217,0.093-0.309,0.309-0.309h2.905
			c0.186,0,0.308,0.092,0.308,0.309v13.537C-12.057,101.061-12.149,101.154-12.366,101.154z"/>
			<path fill="#000" d="M-3.928,101.463c-3.493,0-5.78-2.194-5.78-5.47V92.16c0-3.276,2.287-5.47,5.78-5.47
			c3.461,0,5.748,2.193,5.748,5.47v3.833C1.82,99.269-0.467,101.463-3.928,101.463z M-1.734,92.16c0-1.235-0.959-2.226-2.194-2.226
			c-1.298,0-2.226,0.99-2.226,2.226v3.833c0,1.236,0.927,2.226,2.226,2.226c1.236,0,2.194-0.989,2.194-2.226V92.16z"/>
			<path fill="#000" d="M10.412,100.969c-0.062,0.124-0.154,0.186-0.278,0.186H7.909c-0.093-0.03-0.186-0.093-0.278-0.186
			L2.16,87.433c-0.031-0.062-0.062-0.124-0.062-0.186c0-0.154,0.124-0.246,0.34-0.246H5.56c0.093,0.03,0.186,0.092,0.278,0.185
			c1.453,3.801,2.565,6.646,3.245,8.499C11.216,89.997,11.864,87,12.482,87h3.153c0.216,0,0.34,0.092,0.34,0.246
			c0,0.062-0.031,0.124-0.062,0.186L10.412,100.969z"/>
			<path fill="#000" d="M26.981,101.154h-2.627c-0.463,0-0.247-0.588-0.525-0.588c-0.34,0-1.051,0.588-2.164,0.588h-1.174
			c-2.565,0-4.358-1.762-4.358-4.142v-0.154c0-2.441,1.793-4.142,4.358-4.142h2.967c0.185,0,0.309-0.093,0.309-0.277v-0.062
			l-0.03-0.371c-0.123-1.268-0.958-2.072-2.226-2.072c-0.556,0-1.236,0.341-1.7,0.928c-0.433,0.557-0.556,1.02-0.803,1.02
			c-0.062,0-0.123-0.03-0.186-0.062l-2.534-1.329c-0.124-0.062-0.186-0.154-0.186-0.216c0-0.247,0.433-1.236,1.483-2.256
			c0.927-0.896,2.256-1.329,3.925-1.329c3.493,0,5.779,2.163,5.779,5.44v8.716C27.289,101.061,27.197,101.154,26.981,101.154z
			 M20.491,95.684c-0.464,0-0.834,0.402-0.834,0.865v0.464c0,0.525,0.34,0.896,0.834,0.896h1.174c0.958,0,1.669-0.587,2.071-1.73
			c0,0,0-0.154,0.03-0.495H20.491z"/>
			<path fill="#000" d="M41.259,101.154h-2.937c-0.216,0-0.309-0.093-0.309-0.309v-8.406c0-1.237-0.927-2.194-2.194-2.194
			c-1.298,0-2.226,0.957-2.226,2.194v8.406c0,0.216-0.093,0.309-0.309,0.309H30.38c-0.216,0-0.309-0.093-0.309-0.309V87.309
			c0-0.217,0.093-0.309,0.309-0.309h2.627c0.463,0,0.278,0.617,0.525,0.617c0.371,0,1.112-0.617,2.534-0.617
			c3.152,0,5.501,2.225,5.501,5.439v8.406C41.568,101.061,41.475,101.154,41.259,101.154z"/>
			<path fill="#000" d="M47.595,101.154h-2.906c-0.215,0-0.309-0.093-0.309-0.309V87.309c0-0.217,0.094-0.309,0.309-0.309h2.906
			c0.186,0,0.309,0.092,0.309,0.309v13.537C47.903,101.061,47.809,101.154,47.595,101.154z"/>
			<path fill="#000" d="M61.656,100.969c-0.061,0.124-0.154,0.186-0.277,0.186h-2.227c-0.092-0.03-0.186-0.093-0.277-0.186
			l-5.47-13.536c-0.031-0.062-0.063-0.124-0.063-0.186c0-0.154,0.124-0.246,0.34-0.246h3.121c0.094,0.03,0.186,0.092,0.279,0.185
			c1.452,3.801,2.564,6.646,3.243,8.499C62.461,89.997,63.109,87,63.727,87h3.152c0.216,0,0.339,0.092,0.339,0.246
			c0,0.062-0.03,0.124-0.061,0.186L61.656,100.969z"/>
			<path fill="#000" d="M78.684,94.973H71.33c-0.217,0-0.31,0.094-0.31,0.31v0.711c0,1.236,0.927,2.226,2.226,2.226
			c0.896,0,1.451-0.496,1.979-1.483c0.186-0.372,0.308-0.588,0.463-0.588c0.062,0,0.094,0,0.155,0.031l2.688,1.329
			c0.123,0.062,0.185,0.154,0.185,0.247c0,0.34-0.464,1.174-1.514,2.287c-0.896,0.927-2.226,1.421-3.956,1.421
			c-3.492,0-5.78-2.194-5.78-5.47V92.16c0-0.958,0.311-2.008,0.865-2.843c1.114-1.669,2.906-2.627,4.915-2.627
			c1.979,0,3.802,0.958,4.883,2.627c0.556,0.835,0.865,1.885,0.865,2.843v2.504C78.994,94.88,78.902,94.973,78.684,94.973z
			 M75.379,91.697c0-0.835-1.021-1.763-2.133-1.763c-1.175,0-2.164,0.928-2.164,1.793c0,0.187,0.093,0.279,0.31,0.279h3.677
			C75.285,92.007,75.379,91.914,75.379,91.697z"/>
			<path fill="#000" d="M88.916,90.894c-0.402,0-1.052-0.618-1.917-0.618c-1.205,0-2.132,0.958-2.132,2.164v8.406
			c0,0.216-0.094,0.309-0.309,0.309h-2.906c-0.216,0-0.309-0.093-0.309-0.309V87.309c0-0.217,0.093-0.309,0.309-0.309h2.627
			c0.217,0,0.31,0.061,0.31,0.278v0.433c0,0.185,0.093,0.277,0.278,0.309l0.185-0.093C85.856,87.309,86.598,87,87.4,87
			c1.083,0,1.732,0.246,1.732,0.556v2.998C89.133,90.77,89.04,90.894,88.916,90.894z"/>
			<path fill="#000" d="M97.887,87.617c-0.341,0-1.144-0.617-2.473-0.617c-2.967,0-5.284,2.317-5.284,5.439v3.244
			c0,3.245,2.349,5.471,5.562,5.471c1.39,0,2.133-0.619,2.504-0.619c0.308,0,0.062,0.619,0.525,0.619h2.627
			c0.216,0,0.309-0.093,0.309-0.309V84.239h-3.555v3.039C98.102,87.494,98.01,87.617,97.887,87.617z M98.102,95.684
			c0,1.267-0.927,2.226-2.194,2.226c-1.297,0-2.225-0.959-2.225-2.226v-3.244c0-1.237,0.928-2.194,2.225-2.194
			c1.268,0,2.194,0.957,2.194,2.194V95.684z"/>
			<path fill="#000" d="M107.653,101.154h-2.905c-0.217,0-0.309-0.093-0.309-0.309V87.309c0-0.217,0.093-0.309,0.309-0.309h2.905
			c0.186,0,0.309,0.092,0.309,0.309v13.537C107.962,101.061,107.869,101.154,107.653,101.154z"/>
		</g>
		<circle fill="#000" cx="3.572" cy="20.394" r="3.572"/>
		<circle fill="#000" cx="-37.189" cy="106.976" r="3.572"/>
		<path display="none" fill="#284E37" d="M206.975,73.741c0,2.63-2.151,4.763-4.806,4.763H45.93c-2.654,0-4.806-2.132-4.806-4.763
		V45.258c0-2.63,2.152-4.763,4.806-4.763h156.239c2.654,0,4.806,2.132,4.806,4.763V73.741z"/>
		<circle fill="#000" cx="-18.235" cy="62.771" r="3.531"/>
		<g>
			<g>
				<path fill="#000" d="M-8.972,63.165c-1.115,0.744-2.229,1.143-3.287,1.143c-0.227,0-0.314-0.057-0.314-0.285v-2.429
				c0-0.342,0.314-0.286,1.058-0.457c0.829-0.201,1.399-0.943,1.399-1.858V44.792c0-0.2,0.085-0.286,0.286-0.286h2.686
				c0.171,0,0.286,0.086,0.286,0.286v14.23C-6.858,60.708-7.658,62.28-8.972,63.165z"/>
				<path fill="#000" d="M5.344,51.878h-6.801c-0.2,0-0.286,0.086-0.286,0.286v0.657c0,1.144,0.857,2.058,2.057,2.058
				c0.83,0,1.343-0.457,1.829-1.372c0.172-0.343,0.286-0.543,0.429-0.543c0.057,0,0.085,0,0.142,0.029l2.486,1.229
				c0.115,0.057,0.172,0.143,0.172,0.229c0,0.314-0.429,1.085-1.401,2.115c-0.828,0.857-2.057,1.314-3.658,1.314
				c-3.228,0-5.342-2.029-5.342-5.059v-3.543c0-0.886,0.285-1.857,0.8-2.629c1.029-1.542,2.686-2.428,4.543-2.428
				c1.829,0,3.515,0.886,4.516,2.428c0.514,0.772,0.799,1.743,0.799,2.629v2.315C5.629,51.793,5.543,51.878,5.344,51.878z
				 M2.286,48.849c0-0.771-0.943-1.628-1.973-1.628c-1.085,0-1.999,0.857-1.999,1.657c0,0.171,0.086,0.257,0.285,0.257H2
				C2.201,49.135,2.286,49.049,2.286,48.849z"/>
				<path fill="#000" d="M17.516,57.594h-2.429c-0.4,0-0.229-0.572-0.486-0.572c-0.342,0-1.028,0.572-2.314,0.572
				c-2.971,0-5.115-2.058-5.115-5.059v-7.744c0-0.2,0.086-0.286,0.287-0.286h2.714c0.171,0,0.286,0.086,0.286,0.286v7.744
				c0,1.172,0.857,2.058,2.029,2.058c1.171,0,2.057-0.915,2.057-2.058v-7.744c0-0.2,0.086-0.286,0.287-0.286h2.686
				c0.171,0,0.286,0.086,0.286,0.286v12.516C17.802,57.508,17.716,57.594,17.516,57.594z"/>
				<path fill="#000" d="M30.404,57.594h-2.715c-0.2,0-0.286-0.086-0.286-0.286v-7.772c0-1.144-0.857-2.028-2.029-2.028
				c-1.2,0-2.058,0.885-2.058,2.028v7.772c0,0.2-0.086,0.286-0.286,0.286h-2.686c-0.2,0-0.285-0.086-0.285-0.286V44.792
				c0-0.2,0.086-0.286,0.285-0.286h2.429c0.429,0,0.257,0.572,0.485,0.572c0.343,0,1.029-0.572,2.344-0.572
				c2.914,0,5.086,2.058,5.086,5.03v7.772C30.689,57.508,30.604,57.594,30.404,57.594z"/>
				<path fill="#000" d="M42.429,51.878h-6.8c-0.2,0-0.286,0.086-0.286,0.286v0.657c0,1.144,0.857,2.058,2.057,2.058
				c0.829,0,1.343-0.457,1.829-1.372c0.172-0.343,0.286-0.543,0.429-0.543c0.057,0,0.085,0,0.143,0.029l2.486,1.229
				c0.115,0.057,0.171,0.143,0.171,0.229c0,0.314-0.428,1.085-1.4,2.115C40.229,57.422,39,57.879,37.4,57.879
				c-3.229,0-5.343-2.029-5.343-5.059v-3.543c0-0.886,0.285-1.857,0.8-2.629c1.028-1.542,2.686-2.428,4.543-2.428
				c1.829,0,3.515,0.886,4.515,2.428c0.514,0.772,0.8,1.743,0.8,2.629v2.315C42.715,51.793,42.63,51.878,42.429,51.878z
				 M39.833,48.849c0-0.771-0.943-1.628-1.973-1.628c-1.085,0-2,0.857-2,1.657c0,0.171,0.086,0.257,0.285,0.257h3.401
				C39.747,49.135,39.833,49.049,39.833,48.849z"/>
				<path fill="#000" d="M52.746,45.191c1.058,0.772,1.687,2.001,1.687,2.343c0,0.086-0.059,0.172-0.172,0.229l-2.344,1.144
				c-0.057,0.028-0.114,0.028-0.143,0.028c-0.113,0-0.143-0.057-0.229-0.171c-0.6-0.886-0.914-1.629-2.086-1.629h-0.828
				c-1.029,0-1.572,0.372-1.572,1.086c0,1.172,1.572,0.914,3.915,1.543c2.314,0.628,3.399,1.686,3.399,3.572
				c0,2.686-1.914,4.543-4.914,4.543h-0.828c-1.602,0-2.83-0.457-3.715-1.401c-0.887-0.914-1.229-1.714-1.229-1.971
				c0-0.085,0.057-0.143,0.17-0.2l2.344-1.143c0.057-0.028,0.086-0.028,0.143-0.028c0.086,0,0.144,0.085,0.229,0.2
				c0.572,0.942,0.943,1.628,2.059,1.628h0.828c1.028,0,1.657-0.514,1.657-1.229c0-1.143-1.601-0.886-3.943-1.486
				c-2.286-0.572-3.343-1.658-3.343-3.601c0-2.6,1.971-4.429,4.801-4.429h0.828C50.803,44.22,51.86,44.535,52.746,45.191z"/>
				<path fill="#000" d="M68.034,57.422c-0.056,0.114-0.144,0.171-0.257,0.171H65.72c-0.085-0.029-0.171-0.086-0.257-0.171
				l-5.058-12.516c-0.029-0.057-0.058-0.115-0.058-0.172c0-0.143,0.114-0.229,0.315-0.229h2.885
				c0.087,0.029,0.173,0.086,0.258,0.172c1.344,3.514,2.373,6.143,3.001,7.857c1.972-5.257,2.571-8.03,3.144-8.03h2.914
				c0.201,0,0.314,0.086,0.314,0.229c0,0.057-0.028,0.115-0.057,0.172L68.034,57.422z"/>
				<path fill="#000" d="M83.435,51.878h-6.8c-0.2,0-0.286,0.086-0.286,0.286v0.657c0,1.144,0.857,2.058,2.057,2.058
				c0.83,0,1.344-0.457,1.829-1.372c0.172-0.343,0.287-0.543,0.429-0.543c0.059,0,0.086,0,0.144,0.029l2.486,1.229
				c0.113,0.057,0.171,0.143,0.171,0.229c0,0.314-0.429,1.085-1.4,2.115c-0.828,0.857-2.058,1.314-3.658,1.314
				c-3.229,0-5.342-2.029-5.342-5.059v-3.543c0-0.886,0.285-1.857,0.799-2.629c1.029-1.542,2.686-2.428,4.543-2.428
				c1.829,0,3.516,0.886,4.516,2.428c0.514,0.772,0.8,1.743,0.8,2.629v2.315C83.722,51.793,83.637,51.878,83.435,51.878z
				 M80.379,48.849c0-0.771-0.943-1.628-1.973-1.628c-1.085,0-2,0.857-2,1.657c0,0.171,0.086,0.257,0.287,0.257h3.399
				C80.293,49.135,80.379,49.049,80.379,48.849z"/>
				<path fill="#000" d="M92.09,48.106c-0.371,0-0.971-0.572-1.772-0.572c-1.114,0-1.971,0.886-1.971,2v7.772
				c0,0.2-0.086,0.286-0.286,0.286h-2.685c-0.201,0-0.286-0.086-0.286-0.286V44.792c0-0.2,0.085-0.286,0.286-0.286h2.429
				c0.2,0,0.285,0.058,0.285,0.258v0.4c0,0.171,0.086,0.257,0.258,0.286l0.171-0.086c0.743-0.571,1.43-0.857,2.173-0.857
				c0.999,0,1.6,0.229,1.6,0.515v2.771C92.29,47.992,92.205,48.106,92.09,48.106z"/>
				<path fill="#000" d="M100.588,57.879c-1.229,0-2.8-0.629-3.743-1.543c-0.913-0.886-1.371-2.086-1.371-3.515v-5.029
				c0-0.2-0.085-0.285-0.286-0.285h-1.485c-0.199,0-0.285-0.086-0.285-0.286l0.057-1.515l3.371-3.572l0.201-0.085h1.4
				c0.199,0,0.285,0.085,0.285,0.285v1.886c0,0.2,0.085,0.285,0.285,0.285h1.887c0.2,0,0.286,0.086,0.286,0.286v2.429
				c0,0.2-0.086,0.286-0.286,0.286h-1.887c-0.2,0-0.285,0.086-0.285,0.285v5.029c0,0.886,0.628,1.687,1.314,1.83
				c0.8,0.171,1.144,0.143,1.144,0.485v2.458C101.189,57.851,101.017,57.879,100.588,57.879z"/>
				<path fill="#000" d="M106.11,52.678h-5.145c-0.2,0-0.286-0.085-0.286-0.286v-2.686c0-0.2,0.086-0.286,0.286-0.286h5.145
				c0.199,0,0.285,0.085,0.285,0.286v2.686C106.395,52.593,106.309,52.678,106.11,52.678z"/>
				<path fill="#000" d="M118.516,51.878h-6.801c-0.2,0-0.286,0.086-0.286,0.286v0.657c0,1.144,0.857,2.058,2.058,2.058
				c0.828,0,1.343-0.457,1.829-1.372c0.171-0.343,0.285-0.543,0.428-0.543c0.058,0,0.086,0,0.144,0.029l2.486,1.229
				c0.114,0.057,0.17,0.143,0.17,0.229c0,0.314-0.428,1.085-1.399,2.115c-0.828,0.857-2.058,1.314-3.657,1.314
				c-3.229,0-5.345-2.029-5.345-5.059v-3.543c0-0.886,0.286-1.857,0.802-2.629c1.027-1.542,2.685-2.428,4.543-2.428
				c1.829,0,3.515,0.886,4.515,2.428c0.515,0.772,0.8,1.743,0.8,2.629v2.315C118.801,51.793,118.716,51.878,118.516,51.878z
				 M115.458,48.849c0-0.771-0.943-1.628-1.972-1.628c-1.086,0-2.001,0.857-2.001,1.657c0,0.171,0.087,0.257,0.286,0.257h3.401
				C115.372,49.135,115.458,49.049,115.458,48.849z"/>
				<path fill="#000" d="M135.473,45.191c1.058,0.772,1.686,2.001,1.686,2.343c0,0.086-0.058,0.172-0.171,0.229l-2.344,1.144
				c-0.057,0.028-0.113,0.028-0.143,0.028c-0.114,0-0.144-0.057-0.229-0.171c-0.6-0.886-0.914-1.629-2.085-1.629h-0.829
				c-1.028,0-1.571,0.372-1.571,1.086c0,1.172,1.571,0.914,3.914,1.543c2.315,0.628,3.4,1.686,3.4,3.572
				c0,2.686-1.914,4.543-4.914,4.543h-0.829c-1.601,0-2.829-0.457-3.714-1.401c-0.887-0.914-1.229-1.714-1.229-1.971
				c0-0.085,0.058-0.143,0.172-0.2l2.343-1.143c0.058-0.028,0.086-0.028,0.143-0.028c0.086,0,0.143,0.085,0.229,0.2
				c0.572,0.942,0.943,1.628,2.058,1.628h0.829c1.028,0,1.657-0.514,1.657-1.229c0-1.143-1.6-0.886-3.943-1.486
				c-2.286-0.572-3.344-1.658-3.344-3.601c0-2.6,1.972-4.429,4.801-4.429h0.829C133.529,44.22,134.587,44.535,135.473,45.191z"/>
				<path fill="#000" d="M125.401,52.678h-5.144c-0.2,0-0.286-0.085-0.286-0.285v-2.686c0-0.2,0.086-0.286,0.286-0.286h5.144
				c0.2,0,0.285,0.085,0.285,0.286v2.686C125.686,52.593,125.601,52.678,125.401,52.678z"/>
			</g>
		</g>
	</g>
</svg>
