<?xml version="1.0" encoding="UTF-8" standalone="no"?>
<!-- Generator: Adobe Illustrator 24.2.0, SVG Export Plug-In . SVG Version: 6.00 Build 0) -->
<svg xmlns:dc="http://purl.org/dc/elements/1.1/" xmlns:cc="http://creativecommons.org/ns#" xmlns:rdf="http://www.w3.org/1999/02/22-rdf-syntax-ns#" xmlns:svg="http://www.w3.org/2000/svg" xmlns="http://www.w3.org/2000/svg" xmlns:sodipodi="http://sodipodi.sourceforge.net/DTD/sodipodi-0.dtd" xmlns:inkscape="http://www.inkscape.org/namespaces/inkscape" version="1.1" x="0px" y="0px" viewBox="0 0 398.58535 79.999998" xml:space="preserve" id="svg271" sodipodi:docname="jfs_sp_no_srgb_de_web.svg" width="398.58536" height="80" inkscape:version="0.92.2 (5c3e80d, 2017-08-06)">
  <metadata id="metadata277"></metadata>
  <defs id="defs275"></defs>
  <style type="text/css" id="style2"> .st0{display:none;} .st1{display:inline;} .st2{fill:none;stroke:#12120D;stroke-width:0.25;stroke-miterlimit:10;} .st3{fill:#12120D;} .st4{display:inline;fill:#12120D;} .st5{font-family:'MetaPro';} .st6{font-size:8px;} .st7{fill:none;} .st8{display:inline;fill:none;stroke:#12120D;stroke-width:0.25;stroke-miterlimit:10;} .st9{fill:#004493;} .st10{fill:#CE1243;} </style>
  <g id="Vermassung" class="st0" style="display:none" transform="translate(-35.475359,-56.8)"><g class="st1" id="g16" style="display:inline"><g id="g14"><line class="st2" x1="36.700001" y1="28.6" x2="101.7" y2="28.6" id="line4" style="fill:none;stroke:#12120d;stroke-width:0.25;stroke-miterlimit:10"></line><g id="g8"><path class="st3" d="m 35.2,28.6 c 0.7,0.3 1.6,0.7 2.1,1.2 l -0.4,-1.2 0.4,-1.2 c -0.5,0.5 -1.4,1 -2.1,1.2 z" id="path6" inkscape:connector-curvature="0" style="fill:#12120d"></path></g><g id="g12"><path class="st3" d="m 103.2,28.6 c -0.7,0.3 -1.6,0.7 -2.1,1.2 l 0.4,-1.2 -0.4,-1.2 c 0.5,0.5 1.4,1 2.1,1.2 z" id="path10" inkscape:connector-curvature="0" style="fill:#12120d"></path></g></g></g><text transform="translate(63.0626,25.6665)" class="st4 st5 st6" id="text18" style="font-size:8px;font-family:MetaPro;display:inline;fill:#12120d">24</text> <g class="st1" id="g32" style="display:inline"><g id="g30"><line class="st2" x1="152.89999" y1="78.699997" x2="161.2" y2="78.699997" id="line20" style="fill:none;stroke:#12120d;stroke-width:0.25;stroke-miterlimit:10"></line><g id="g24"><path class="st3" d="m 151.4,78.7 c 0.7,0.3 1.6,0.7 2.1,1.2 l -0.4,-1.2 0.4,-1.2 c -0.5,0.5 -1.4,1 -2.1,1.2 z" id="path22" inkscape:connector-curvature="0" style="fill:#12120d"></path></g><g id="g28"><path class="st3" d="m 162.7,78.7 c -0.7,0.3 -1.6,0.7 -2.1,1.2 l 0.4,-1.2 -0.4,-1.2 c 0.5,0.5 1.4,1 2.1,1.2 z" id="path26" inkscape:connector-curvature="0" style="fill:#12120d"></path></g></g></g><text transform="translate(154.9889,76.7676)" class="st4 st5 st6" id="text34" style="font-size:8px;font-family:MetaPro;display:inline;fill:#12120d">4</text> <g class="st1" id="g48" style="display:inline"><g id="g46"><line class="st2" x1="138.7" y1="70.599998" x2="142.8" y2="70.599998" id="line36" style="fill:none;stroke:#12120d;stroke-width:0.25;stroke-miterlimit:10"></line><g id="g40"><path class="st3" d="m 137.2,70.6 c 0.7,0.3 1.6,0.7 2.1,1.2 l -0.4,-1.2 0.4,-1.2 c -0.5,0.5 -1.4,1 -2.1,1.2 z" id="path38" inkscape:connector-curvature="0" style="fill:#12120d"></path></g><g id="g44"><path class="st3" d="m 144.3,70.6 c -0.7,0.3 -1.6,0.7 -2.1,1.2 l 0.4,-1.2 -0.4,-1.2 c 0.5,0.5 1.4,1 2.1,1.2 z" id="path42" inkscape:connector-curvature="0" style="fill:#12120d"></path></g></g></g><text transform="translate(138.6978,68.6508)" class="st4 st5 st6" id="text50" style="font-size:8px;font-family:MetaPro;display:inline;fill:#12120d">2</text> <g class="st1" id="g64" style="display:inline"><g id="g62"><line class="st2" x1="380.10001" y1="98.5" x2="380.10001" y2="118.2" id="line52" style="fill:none;stroke:#12120d;stroke-width:0.25;stroke-miterlimit:10"></line><g id="g56"><path class="st3" d="m 380.1,97 c -0.3,0.7 -0.7,1.6 -1.2,2.1 l 1.2,-0.4 1.2,0.4 c -0.5,-0.5 -0.9,-1.4 -1.2,-2.1 z" id="path54" inkscape:connector-curvature="0" style="fill:#12120d"></path></g><g id="g60"><path class="st3" d="m 380.1,119.7 c -0.3,-0.7 -0.7,-1.6 -1.2,-2.1 l 1.2,0.4 1.2,-0.4 c -0.5,0.5 -0.9,1.4 -1.2,2.1 z" id="path58" inkscape:connector-curvature="0" style="fill:#12120d"></path></g></g></g><text transform="translate(373.5626,111.1665)" class="st4 st5 st6" id="text66" style="font-size:8px;font-family:MetaPro;display:inline;fill:#12120d">8</text> <g class="st1" id="g80" style="display:inline"><g id="g78"><line class="st2" x1="545.79999" y1="64" x2="545.79999" y2="95" id="line68" style="fill:none;stroke:#12120d;stroke-width:0.25;stroke-miterlimit:10"></line><g id="g72"><path class="st3" d="m 545.8,62.5 c -0.3,0.7 -0.7,1.6 -1.2,2.1 l 1.2,-0.4 1.2,0.4 c -0.5,-0.5 -1,-1.4 -1.2,-2.1 z" id="path70" inkscape:connector-curvature="0" style="fill:#12120d"></path></g><g id="g76"><path class="st3" d="m 545.8,96.5 c -0.3,-0.7 -0.7,-1.6 -1.2,-2.1 l 1.2,0.4 1.2,-0.4 c -0.5,0.5 -1,1.4 -1.2,2.1 z" id="path74" inkscape:connector-curvature="0" style="fill:#12120d"></path></g></g></g><text transform="translate(547.4919,83.6332)" class="st4 st5 st6" id="text82" style="font-size:8px;font-family:MetaPro;display:inline;fill:#12120d">12</text> <g class="st1" id="g96" style="display:inline"><g id="g94"><line class="st2" x1="472.39999" y1="120.8" x2="472.39999" y2="134.7" id="line84" style="fill:none;stroke:#12120d;stroke-width:0.25;stroke-miterlimit:10"></line><g id="g88"><path class="st3" d="m 472.4,119.2 c -0.3,0.7 -0.7,1.6 -1.2,2.1 l 1.2,-0.4 1.2,0.4 c -0.4,-0.5 -0.9,-1.3 -1.2,-2.1 z" id="path86" inkscape:connector-curvature="0" style="fill:#12120d"></path></g><g id="g92"><path class="st3" d="m 472.4,136.3 c -0.3,-0.7 -0.7,-1.6 -1.2,-2.1 l 1.2,0.4 1.2,-0.4 c -0.4,0.5 -0.9,1.3 -1.2,2.1 z" id="path90" inkscape:connector-curvature="0" style="fill:#12120d"></path></g></g></g><text transform="translate(476.2626,131.371)" class="st4 st5 st6" id="text98" style="font-size:8px;font-family:MetaPro;display:inline;fill:#12120d">6</text> <g class="st1" id="g112" style="display:inline"><g id="g110"><line class="st2" x1="338.79999" y1="52.799999" x2="338.79999" y2="61.099998" id="line100" style="fill:none;stroke:#12120d;stroke-width:0.25;stroke-miterlimit:10"></line><g id="g104"><path class="st3" d="m 338.8,51.3 c -0.3,0.7 -0.7,1.6 -1.2,2.1 l 1.2,-0.4 1.2,0.4 c -0.4,-0.6 -0.9,-1.4 -1.2,-2.1 z" id="path102" inkscape:connector-curvature="0" style="fill:#12120d"></path></g><g id="g108"><path class="st3" d="m 338.8,62.6 c -0.3,-0.7 -0.7,-1.6 -1.2,-2.1 l 1.2,0.4 1.2,-0.4 c -0.4,0.5 -0.9,1.4 -1.2,2.1 z" id="path106" inkscape:connector-curvature="0" style="fill:#12120d"></path></g></g></g><text transform="translate(341.6621,59.3134)" class="st4 st5 st6" id="text114" style="font-size:8px;font-family:MetaPro;display:inline;fill:#12120d">4</text> <g class="st1" id="g118" style="display:inline"><path class="st7" d="M 470.8,62.6" id="path116" inkscape:connector-curvature="0" style="fill:none"></path></g><g class="st1" id="g122" style="display:inline"><path class="st7" d="M 470.8,42.8" id="path120" inkscape:connector-curvature="0" style="fill:none"></path></g><g class="st1" id="g136" style="display:inline"><g id="g134"><line class="st2" x1="31.799999" y1="37.799999" x2="31.799999" y2="102.9" id="line124" style="fill:none;stroke:#12120d;stroke-width:0.25;stroke-miterlimit:10"></line><g id="g128"><path class="st3" d="m 31.8,36.3 c -0.3,0.7 -0.7,1.6 -1.2,2.1 L 31.8,38 33,38.4 C 32.5,37.9 32,37 31.8,36.3 Z" id="path126" inkscape:connector-curvature="0" style="fill:#12120d"></path></g><g id="g132"><path class="st3" d="m 31.8,104.4 c -0.3,-0.7 -0.7,-1.6 -1.2,-2.1 l 1.2,0.4 1.2,-0.4 c -0.5,0.5 -1,1.4 -1.2,2.1 z" id="path130" inkscape:connector-curvature="0" style="fill:#12120d"></path></g></g></g><text transform="translate(21.1253,75.4613)" class="st4 st5 st6" id="text138" style="font-size:8px;font-family:MetaPro;display:inline;fill:#12120d">24</text> <g class="st1" id="g152" style="display:inline"><g id="g150"><line class="st2" x1="130.2" y1="28.6" x2="195.2" y2="28.6" id="line140" style="fill:none;stroke:#12120d;stroke-width:0.25;stroke-miterlimit:10"></line><g id="g144"><path class="st3" d="m 128.7,28.6 c 0.7,0.3 1.6,0.7 2.1,1.2 l -0.4,-1.2 0.4,-1.2 c -0.5,0.5 -1.4,1 -2.1,1.2 z" id="path142" inkscape:connector-curvature="0" style="fill:#12120d"></path></g><g id="g148"><path class="st3" d="m 196.7,28.6 c -0.7,0.3 -1.6,0.7 -2.1,1.2 l 0.4,-1.2 -0.4,-1.2 c 0.6,0.5 1.4,1 2.1,1.2 z" id="path146" inkscape:connector-curvature="0" style="fill:#12120d"></path></g></g></g><text transform="translate(156.6059,25.6665)" class="st4 st5 st6" id="text154" style="font-size:8px;font-family:MetaPro;display:inline;fill:#12120d">24</text> <g class="st1" id="g168" style="display:inline"><g id="g166"><line class="st2" x1="470" y1="28.6" x2="535.09998" y2="28.6" id="line156" style="fill:none;stroke:#12120d;stroke-width:0.25;stroke-miterlimit:10"></line><g id="g160"><path class="st3" d="m 468.5,28.6 c 0.7,0.3 1.6,0.7 2.1,1.2 l -0.4,-1.2 0.4,-1.2 c -0.5,0.5 -1.4,1 -2.1,1.2 z" id="path158" inkscape:connector-curvature="0" style="fill:#12120d"></path></g><g id="g164"><path class="st3" d="m 536.6,28.6 c -0.7,0.3 -1.6,0.7 -2.1,1.2 l 0.4,-1.2 -0.4,-1.2 c 0.5,0.5 1.4,1 2.1,1.2 z" id="path162" inkscape:connector-curvature="0" style="fill:#12120d"></path></g></g></g><text transform="translate(496.4315,25.6665)" class="st4 st5 st6" id="text170" style="font-size:8px;font-family:MetaPro;display:inline;fill:#12120d">24</text> <g class="st1" id="g184" style="display:inline"><g id="g182"><line class="st2" x1="104.7" y1="28.6" x2="127.2" y2="28.6" id="line172" style="fill:none;stroke:#12120d;stroke-width:0.25;stroke-miterlimit:10"></line><g id="g176"><path class="st3" d="m 103.2,28.6 c 0.7,0.3 1.6,0.7 2.1,1.2 l -0.4,-1.2 0.4,-1.2 c -0.5,0.5 -1.4,1 -2.1,1.2 z" id="path174" inkscape:connector-curvature="0" style="fill:#12120d"></path></g><g id="g180"><path class="st3" d="m 128.7,28.6 c -0.7,0.3 -1.6,0.7 -2.1,1.2 l 0.4,-1.2 -0.4,-1.2 c 0.5,0.5 1.4,1 2.1,1.2 z" id="path178" inkscape:connector-curvature="0" style="fill:#12120d"></path></g></g></g><text transform="translate(112.2424,25.6665)" class="st4 st5 st6" id="text186" style="font-size:8px;font-family:MetaPro;display:inline;fill:#12120d">9*</text> <line class="st8" x1="0.40000001" y1="136.39999" x2="574.70001" y2="136.39999" id="line188" style="display:inline;fill:none;stroke:#12120d;stroke-width:0.25;stroke-miterlimit:10"></line><line class="st8" x1="0.40000001" y1="119.5" x2="574.70001" y2="119.5" id="line190" style="display:inline;fill:none;stroke:#12120d;stroke-width:0.25;stroke-miterlimit:10"></line><line class="st8" x1="0.40000001" y1="104.4" x2="574.70001" y2="104.4" id="line192" style="display:inline;fill:none;stroke:#12120d;stroke-width:0.25;stroke-miterlimit:10"></line><line class="st8" x1="0.40000001" y1="96.800003" x2="574.70001" y2="96.800003" id="line194" style="display:inline;fill:none;stroke:#12120d;stroke-width:0.25;stroke-miterlimit:10"></line><line class="st8" x1="0.40000001" y1="62" x2="574.70001" y2="62" id="line196" style="display:inline;fill:none;stroke:#12120d;stroke-width:0.25;stroke-miterlimit:10"></line><line class="st8" x1="0.40000001" y1="51" x2="574.70001" y2="51" id="line198" style="display:inline;fill:none;stroke:#12120d;stroke-width:0.25;stroke-miterlimit:10"></line><line class="st8" x1="0.40000001" y1="36.099998" x2="574.70001" y2="36.099998" id="line200" style="display:inline;fill:none;stroke:#12120d;stroke-width:0.25;stroke-miterlimit:10"></line><line class="st8" x1="35.099998" y1="1" x2="35.099998" y2="158.2" id="line202" style="display:inline;fill:none;stroke:#12120d;stroke-width:0.25;stroke-miterlimit:10"></line><line class="st8" x1="103.1" y1="1" x2="103.1" y2="158.2" id="line204" style="display:inline;fill:none;stroke:#12120d;stroke-width:0.25;stroke-miterlimit:10"></line><line class="st8" x1="128.60001" y1="1" x2="128.60001" y2="158.2" id="line206" style="display:inline;fill:none;stroke:#12120d;stroke-width:0.25;stroke-miterlimit:10"></line><line class="st8" x1="196.60001" y1="1" x2="196.60001" y2="158.2" id="line208" style="display:inline;fill:none;stroke:#12120d;stroke-width:0.25;stroke-miterlimit:10"></line><line class="st8" x1="359.70001" y1="1" x2="359.70001" y2="158.2" id="line210" style="display:inline;fill:none;stroke:#12120d;stroke-width:0.25;stroke-miterlimit:10"></line><line class="st8" x1="468.10001" y1="1" x2="468.10001" y2="158.2" id="line212" style="display:inline;fill:none;stroke:#12120d;stroke-width:0.25;stroke-miterlimit:10"></line><line class="st8" x1="536.20001" y1="1" x2="536.20001" y2="158.2" id="line214" style="display:inline;fill:none;stroke:#12120d;stroke-width:0.25;stroke-miterlimit:10"></line></g>
  <g id="Logo_Farbe" transform="matrix(0.79681275,0,0,0.79681275,-28.267218,-29.003984)">
    <g id="g247">
      <path class="st9" d="m 133.8,101.4 c -2,2.7 -5,4.7 -7.9,5.7 l -3.6,-4.1 c 2.4,-1.4 4.5,-3.4 5.4,-5.3 0.8,-1.7 1.1,-3.6 1.1,-8.7 V 50.3 h 7.8 v 38.1 c 0,7.7 -0.7,10.3 -2.8,13 z" id="path217" inkscape:connector-curvature="0" style="fill:#004493"></path>
      <path class="st9" d="m 167.4,98.1 c -1.5,-1.1 -2.4,-2.3 -3,-4.3 -2.5,2.8 -5.8,4.2 -9.7,4.2 -3.8,0 -6.8,-1.4 -8.5,-3.4 -1.4,-1.6 -1.9,-3.8 -1.9,-8.1 V 63.4 l 7.3,-1.4 v 22.9 c 0,4.3 0.6,7.4 5,7.4 2.5,0 5.5,-2 6.7,-4.5 V 63.4 l 7.2,-1.4 v 25.7 c 0,5.1 2.1,6.8 2.1,6.8 z" id="path219" inkscape:connector-curvature="0" style="fill:#004493"></path>
      <path class="st9" d="M 197.2,97 V 74.3 c 0,-4.7 -1.1,-5.9 -3.9,-5.9 -2.2,0 -5.3,1.6 -7.5,3.8 V 97 h -7.3 V 71.9 c 0,-3.6 -0.3,-5.7 -1.3,-8.1 l 6.8,-1.9 c 0.8,1.6 1.2,3 1.2,4.9 3.6,-3.1 6.8,-4.7 10.5,-4.7 5.3,0 8.9,3.2 8.9,9.5 V 97 Z" id="path221" inkscape:connector-curvature="0" style="fill:#004493"></path>
      <path class="st9" d="m 238.1,68.3 c -1.4,0 -2.4,-0.3 -2.6,-0.3 0.2,0.2 2.2,2.4 2.2,5.9 0,5.9 -4.9,10.5 -13,10.5 -2.4,0.9 -4.6,2.2 -4.6,3.2 0,1.3 0.5,1.4 8.5,1.4 5.5,0 11.3,2.8 11.3,9.7 0,7.3 -6.1,11.2 -15.2,11.2 -8.8,0 -15.3,-2.9 -15.3,-9.3 0,-1.6 0.7,-3.6 0.7,-3.6 h 7 c 0,0 -0.5,1.4 -0.5,2.4 0,3.2 2.7,4.9 7.5,4.9 5.3,0 8.1,-2.2 8.1,-5.3 0,-3.7 -3.1,-4.7 -9.5,-4.7 -9.2,0 -11.2,-1.8 -11.2,-5.2 0,-3.4 2.8,-4.7 6.5,-5.9 -5.1,-1.5 -7.8,-4.8 -7.8,-9.7 0,-7 5.5,-11.5 13.6,-11.5 4.9,0 7.6,1.8 10.4,1.8 2.2,0 4.3,-0.8 6.2,-2.4 l 3.4,4.7 c -1.6,1.6 -3.4,2.2 -5.7,2.2 z m -14.2,-0.6 c -3.8,0 -5.9,2.1 -5.9,5.9 0,3.9 2.2,5.7 5.9,5.7 3.8,0 5.9,-2 5.9,-5.8 0,-3.8 -1.9,-5.8 -5.9,-5.8 z" id="path223" inkscape:connector-curvature="0" style="fill:#004493"></path>
      <path class="st9" d="m 266.9,54.1 c -1.7,-0.8 -2.7,-1.2 -4.1,-1.2 -2.6,0 -4.2,1.8 -4.2,4.8 v 5.2 h 8.9 l -1.9,5.1 h -7 v 29 h -7.4 V 68 H 248 v -5.1 h 3.3 c 0,0 -0.2,-1.9 -0.2,-5.1 0,-7.1 4.3,-10.4 10.4,-10.4 2.9,0 5.3,0.6 7.7,2 z" id="path225" inkscape:connector-curvature="0" style="fill:#004493"></path>
      <path class="st9" d="m 288.6,69.3 c -0.7,-0.3 -1.3,-0.5 -2.1,-0.5 -3.1,0 -5.7,2.3 -6.4,5.1 V 97 h -7.4 V 72.9 c 0,-4.3 -0.5,-7.1 -1.2,-9.2 l 6.8,-1.8 c 0.8,1.6 1.3,3.5 1.3,5.4 2.7,-3.7 5.4,-5.5 8.7,-5.5 1.1,0 1.8,0.1 2.6,0.5 z" id="path227" inkscape:connector-curvature="0" style="fill:#004493"></path>
      <path class="st9" d="m 302.1,82 v 0.5 c 0,4.7 1.8,9.7 8.4,9.7 3.2,0 5.9,-1.1 8.5,-3.4 l 2.9,4.5 c -3.6,3 -7.7,4.5 -12.3,4.5 C 300,97.9 294,91 294,80 c 0,-6 1.3,-10 4.3,-13.4 2.8,-3.2 6.1,-4.6 10.5,-4.6 3.4,0 6.5,0.9 9.4,3.5 3,2.7 4.5,6.9 4.5,14.9 V 82 Z m 6.6,-14.3 c -4.2,0 -6.5,3.3 -6.5,8.8 h 12.6 c 0,-5.5 -2.4,-8.8 -6.1,-8.8 z" id="path229" inkscape:connector-curvature="0" style="fill:#004493"></path>
      <path class="st9" d="m 332.3,55.4 c -2.3,0 -4.2,-1.9 -4.2,-4.2 0,-2.4 1.9,-4.3 4.3,-4.3 2.3,0 4.2,1.9 4.2,4.3 0.1,2.3 -1.9,4.2 -4.3,4.2 z M 328.6,97 V 63.4 l 7.5,-1.4 v 35 z" id="path231" inkscape:connector-curvature="0" style="fill:#004493"></path>
      <path class="st9" d="m 354.3,98 c -4.2,0 -8.7,-1.4 -13.1,-3.8 l 2.6,-5.3 c 3,1.8 7.2,3.6 11.1,3.6 3.2,0 5.5,-2 5.5,-4.8 0,-2.6 -1.7,-4 -5.5,-4.8 L 350.8,82 c -5.1,-1.1 -8.2,-4.6 -8.2,-9.4 0,-6.4 5.1,-10.9 12.7,-10.9 4.7,0 8.4,1.4 11.3,3 l -2.4,5.1 c -3.2,-1.7 -5.7,-2.5 -8.4,-2.5 -3.2,0 -5.2,1.8 -5.2,4.4 0,2.1 1.1,3.2 4.6,4.1 l 4.3,1.1 c 6.9,1.8 8.7,5.5 8.7,9.5 -0.1,6.9 -5.7,11.6 -13.9,11.6 z" id="path233" inkscape:connector-curvature="0" style="fill:#004493"></path>
      <path class="st9" d="m 378.6,55.1 c -2.3,0 -4.2,-1.9 -4.2,-4.2 0,-2.4 1.9,-4.3 4.3,-4.3 2.3,0 4.2,1.9 4.2,4.3 0,2.3 -1.9,4.2 -4.3,4.2 z M 374.9,97 V 63.4 l 7.5,-1.4 v 35 z" id="path235" inkscape:connector-curvature="0" style="fill:#004493"></path>
      <path class="st9" d="M 408.5,97 V 74.3 c 0,-4.7 -1.1,-5.9 -3.9,-5.9 -2.2,0 -5.3,1.6 -7.5,3.8 V 97 h -7.3 V 71.9 c 0,-3.6 -0.3,-5.7 -1.3,-8.1 l 6.8,-1.9 c 0.8,1.6 1.2,3 1.2,4.9 3.6,-3.1 6.8,-4.7 10.5,-4.7 5.3,0 8.9,3.2 8.9,9.5 V 97 Z" id="path237" inkscape:connector-curvature="0" style="fill:#004493"></path>
      <path class="st9" d="M 442,97 V 74.3 c 0,-4.7 -1.1,-5.9 -3.9,-5.9 -2.2,0 -5.3,1.6 -7.5,3.8 V 97 h -7.3 V 71.9 c 0,-3.6 -0.3,-5.7 -1.3,-8.1 l 6.8,-1.9 c 0.8,1.6 1.2,3 1.2,4.9 3.6,-3.1 6.8,-4.7 10.5,-4.7 5.3,0 8.9,3.2 8.9,9.5 V 97 Z" id="path239" inkscape:connector-curvature="0" style="fill:#004493"></path>
      <path class="st9" d="m 460.5,55.1 c -2.3,0 -4.2,-1.9 -4.2,-4.2 0,-2.4 1.9,-4.3 4.3,-4.3 2.3,0 4.2,1.9 4.2,4.3 0.1,2.3 -1.9,4.2 -4.3,4.2 z M 456.8,97 V 63.4 l 7.5,-1.4 v 35 z" id="path241" inkscape:connector-curvature="0" style="fill:#004493"></path>
      <path class="st9" d="m 498.7,68.3 c -1.4,0 -2.4,-0.3 -2.6,-0.3 0.2,0.2 2.2,2.4 2.2,5.9 0,5.9 -4.9,10.5 -13,10.5 -2.4,0.9 -4.6,2.2 -4.6,3.2 0,1.3 0.5,1.4 8.5,1.4 5.5,0 11.3,2.8 11.3,9.7 0,7.3 -6.1,11.2 -15.2,11.2 -8.8,0 -15.3,-2.9 -15.3,-9.3 0,-1.6 0.7,-3.6 0.7,-3.6 h 7 c 0,0 -0.5,1.4 -0.5,2.4 0,3.2 2.7,4.9 7.5,4.9 5.3,0 8.1,-2.2 8.1,-5.3 0,-3.7 -3.1,-4.7 -9.5,-4.7 -9.2,0 -11.2,-1.8 -11.2,-5.2 0,-3.4 2.8,-4.7 6.5,-5.9 -5.1,-1.5 -7.8,-4.8 -7.8,-9.7 0,-7 5.5,-11.5 13.6,-11.5 4.9,0 7.6,1.8 10.4,1.8 2.2,0 4.3,-0.8 6.2,-2.4 l 3.4,4.7 c -1.6,1.6 -3.4,2.2 -5.7,2.2 z m -14.2,-0.6 c -3.8,0 -5.9,2.1 -5.9,5.9 0,3.9 2.2,5.7 5.9,5.7 3.8,0 5.9,-2 5.9,-5.8 0,-3.8 -1.9,-5.8 -5.9,-5.8 z" id="path243" inkscape:connector-curvature="0" style="fill:#004493"></path>
      <path class="st9" d="m 515.2,82 v 0.5 c 0,4.7 1.8,9.7 8.4,9.7 3.2,0 5.9,-1.1 8.5,-3.4 l 2.9,4.5 c -3.6,3 -7.7,4.5 -12.3,4.5 -9.7,0 -15.7,-7 -15.7,-17.9 0,-6 1.3,-10 4.3,-13.4 2.8,-3.2 6.1,-4.6 10.5,-4.6 3.4,0 6.5,0.9 9.4,3.5 3,2.7 4.5,6.9 4.5,14.9 V 82 Z m 6.6,-14.3 c -4.2,0 -6.5,3.3 -6.5,8.8 h 12.6 c 0,-5.5 -2.4,-8.8 -6.1,-8.8 z" id="path245" inkscape:connector-curvature="0" style="fill:#004493"></path>
    </g>
    <g id="g263">
      <path class="st9" d="m 365.8,136.8 c -2.5,0 -5.2,-0.7 -7.4,-2 l 1.6,-3.4 c 2,1.1 3.8,1.7 6,1.7 2.5,0 3.8,-1 3.8,-3 0,-1.4 -0.9,-2.3 -2.8,-2.8 l -2.4,-0.7 c -2.2,-0.6 -3.5,-1.4 -4.3,-2.7 -0.6,-1 -0.9,-2.1 -0.9,-3.3 0,-4 3.2,-6.7 7.8,-6.7 2.6,0 5.3,0.8 7.2,2.2 l -2.1,3.1 c -2,-1.2 -3.4,-1.7 -5.1,-1.7 -1.8,0 -3,1 -3,2.5 0,1.1 0.6,1.7 2.4,2.2 l 2.6,0.7 c 3.6,1 5.5,3.2 5.5,6.5 0,4.5 -3.5,7.4 -8.9,7.4 z" id="path249" inkscape:connector-curvature="0" style="fill:#004493"></path>
      <path class="st9" d="m 388.1,135.7 c -1.1,0.7 -2.4,1 -3.9,1 -4.4,0 -7,-3.1 -7,-8.2 0,-3.7 1.4,-6.1 3.3,-7.4 1.1,-0.7 2.6,-1.2 4,-1.2 1.1,0 2.2,0.2 3.1,0.7 0.6,0.3 0.9,0.5 1.6,1.1 l -2,2.7 c -0.8,-0.8 -1.7,-1.2 -2.5,-1.2 -1.9,0 -2.7,1.6 -2.7,5.4 0,2.1 0.3,3.3 0.8,4 0.4,0.6 1.2,0.9 1.9,0.9 1,0 1.8,-0.4 2.9,-1.3 l 0.2,-0.2 1.9,2.5 c -0.8,0.6 -1.1,0.8 -1.6,1.2 z" id="path251" inkscape:connector-curvature="0" style="fill:#004493"></path>
      <path class="st9" d="m 401.7,136.3 v -10.7 c 0,-1.6 -0.4,-2.2 -1.6,-2.2 -1,0 -2.4,0.6 -3.3,1.5 v 11.4 h -4.2 v -18.5 c 0,-1.5 -0.1,-3 -0.3,-3.6 l 4.3,-1 c 0.2,0.9 0.3,2.4 0.3,3.9 v 3.2 c 0,0.5 -0.1,1.2 -0.1,1.3 1.1,-1 2.9,-1.7 4.5,-1.7 2,0 3.6,0.9 4.1,2.3 0.3,0.9 0.4,1.4 0.4,3 v 11.2 h -4.1 z" id="path253" inkscape:connector-curvature="0" style="fill:#004493"></path>
      <path class="st9" d="m 425.3,136.3 h -3.8 l -1.4,-5.5 c -0.3,-1.3 -0.7,-2.8 -0.9,-3.9 l -0.2,-1.6 c -0.1,0.7 -0.1,0.9 -0.4,2.1 -0.3,1.4 -1,4.1 -1.4,5.6 l -0.8,3.3 h -3.9 l -4.4,-15.7 4.1,-0.5 1.3,6.1 c 0.4,1.7 0.8,4.3 0.9,5 0.2,-1.2 0.7,-3.8 1.2,-5.5 l 1.5,-5.4 h 3.9 l 1.3,5.3 c 0.6,2.6 1.1,5.1 1.2,5.6 0.1,-0.7 0.4,-3.2 0.9,-5.2 l 1.2,-5.7 h 4.3 z" id="path255" inkscape:connector-curvature="0" style="fill:#004493"></path>
      <path class="st9" d="m 435.8,129.6 v 0.1 c 0,2.5 1.2,3.9 3.4,3.9 1.4,0 2.8,-0.5 4.1,-1.6 l 1.6,2.5 c -1.8,1.5 -3.8,2.2 -6,2.2 -4.6,0 -7.5,-3.2 -7.5,-8.3 0,-2.9 0.6,-4.8 2,-6.3 1.3,-1.5 2.9,-2.2 5,-2.2 1.8,0 3.6,0.6 4.6,1.7 1.5,1.5 2.1,3.6 2.1,7 v 1 z m 4.9,-3.2 c 0,-1.2 -0.1,-1.8 -0.5,-2.4 -0.4,-0.6 -1,-0.9 -1.8,-0.9 -1.6,0 -2.5,1.2 -2.5,3.5 v 0.1 h 4.8 z" id="path257" inkscape:connector-curvature="0" style="fill:#004493"></path>
      <path class="st9" d="m 450.4,118.5 c -1.4,0 -2.6,-1.2 -2.6,-2.6 0,-1.4 1.2,-2.6 2.6,-2.6 1.4,0 2.5,1.2 2.5,2.6 0,1.4 -1.1,2.6 -2.5,2.6 z m -2.1,17.8 v -15.7 l 4.2,-0.7 v 16.3 h -4.2 z" id="path259" inkscape:connector-curvature="0" style="fill:#004493"></path>
      <path class="st9" d="m 467.7,136.3 h -11.8 v -2.6 l 7.5,-10.4 h -6.9 v -2.9 h 11.8 v 2.9 l -7,10.2 h 7.3 z" id="path261" inkscape:connector-curvature="0" style="fill:#004493"></path>
    </g>
    <g id="Ebene_3"></g>
    <path class="st10" d="m 85.5,57 v 5.1 L 84.1,64 c -6.6,8.9 -6.9,9.2 -12.2,16.3 -2.9,3.9 -4.1,8.5 -3.2,12.6 0.6,2.8 2.2,5.2 4.2,6.3 3.5,1.9 7.3,1.8 11.3,-0.5 0.9,-0.5 1.8,-1.2 2.7,-1.8 1.5,-1.1 2.9,-2.4 4.2,-3.8 1.3,-1.4 2.4,-2.9 3.4,-4.5 1,-1.6 1.8,-3.3 2.5,-5.1 1.3,-3.7 1.9,-7.6 1.7,-11.5 -0.2,-3.9 -1.2,-7.7 -2.9,-11.3 -0.7,-1.5 -1.6,-3 -2.6,-4.4 L 93,56 l 2.8,-3.1 0.4,0.5 c 4,5.3 6.4,11.8 6.7,18.4 0.5,9 -2.6,17.6 -8.7,24.2 -6,6.6 -14.2,10.5 -23.2,10.9 -0.5,0 -1,0 -1.5,0 -6.9,0 -14.2,-2.1 -19.9,-5.8 z" id="path266" inkscape:connector-curvature="0" style="fill:#ce1243"></path>
    <path class="st9" d="M 43.7,96.2 C 38.6,89.8 35.8,82.6 35.5,75.3 34.8,57 49.1,41.3 67.4,40.3 72.5,40 78.2,41.2 83.3,43.5 v 0 l 0.8,0.4 -0.5,0.5 -2.6,2.4 -0.3,-0.1 C 80.3,46.5 80.2,46.5 80,46.4 l -0.8,-0.3 c -3.7,-1.3 -7.6,-1.9 -11.6,-1.7 -4,0.2 -7.8,1.2 -11.4,2.9 -1.7,0.8 -3.3,1.8 -4.9,3 -1.5,1.1 -2.9,2.4 -4.2,3.8 -1.3,1.4 -2.4,2.9 -3.4,4.5 -0.8,1.4 -1.6,2.9 -2.2,4.4 -1.8,4.8 -1.4,8.8 1,10.9 3.5,3 10.6,1.8 19.5,-3.3 C 67.4,67.5 80,55.9 97.3,38 l 1.6,-1.6 v 5 l -0.1,0.1 z" id="path268" inkscape:connector-curvature="0" style="fill:#004493"></path>
  </g>
</svg>
