<svg version="1.1" id="Layer_1"
	xmlns="http://www.w3.org/2000/svg"
	xmlns:xlink="http://www.w3.org/1999/xlink" x="0px" y="0px" width="100%" viewBox="0 0 512 512" enable-background="new 0 0 512 512" xml:space="preserve">
	<path fill="#FFF" opacity="1.000000" stroke="none" d="
M0.999999,333.468658 
	C1.527936,332.174438 2.258521,331.415192 2.553685,330.513428 
	C7.741458,314.664459 19.224005,305.871826 34.792511,301.630066 
	C56.870613,295.614716 78.942650,289.576782 101.039154,283.629761 
	C103.682487,282.918365 104.495293,280.547455 105.822845,278.824188 
	C119.267479,261.371918 132.220215,243.531937 145.959549,226.318436 
	C155.858200,213.916779 169.356827,206.894958 185.287109,206.780960 
	C234.108810,206.431595 282.939545,206.259964 331.756317,206.864258 
	C350.230042,207.092957 364.531860,216.723053 374.518280,232.218323 
	C385.120331,248.668839 395.469116,265.284058 405.771881,281.924316 
	C407.244019,284.302002 409.360870,285.257050 411.597046,286.290558 
	C423.351776,291.723267 435.305115,296.763153 446.836578,302.632721 
	C461.462280,310.077271 467.990173,323.006287 469.311554,338.890747 
	C469.573181,342.035553 469.392029,345.220062 469.359100,348.385681 
	C469.330994,351.085388 470.598145,351.886261 473.164642,351.366882 
	C483.782501,349.218231 490.636566,341.030914 490.640839,330.192749 
	C490.663086,273.703278 490.663269,217.213821 490.646637,160.724365 
	C490.642975,148.353973 481.655823,138.567871 469.245117,138.478653 
	C434.753479,138.230698 400.258789,138.408600 365.765350,138.379944 
	C362.984924,138.377640 361.837891,139.365601 361.206970,142.307877 
	C356.427307,164.596436 342.557556,178.430664 320.670502,183.909912 
	C310.956085,186.341843 300.819611,185.415283 290.855011,185.297089 
	C287.079071,185.252319 284.421570,185.533234 283.047089,190.070068 
	C281.496826,195.186920 275.967682,197.305695 269.895142,196.302185 
	C265.459198,195.569138 261.831573,191.104401 261.701752,185.786179 
	C261.552643,179.678162 261.667175,173.563721 261.667175,167.340485 
	C251.322693,167.340485 241.701508,167.498596 232.088028,167.294693 
	C223.012680,167.102219 217.671219,159.272903 220.928513,151.234512 
	C222.653351,146.977936 225.853531,145.105713 230.519775,144.551971 
	C239.314636,143.508270 248.107620,143.616409 256.908661,143.692520 
	C260.261475,143.721527 261.771515,142.672531 261.691986,139.113388 
	C261.524506,131.618576 261.534363,124.115051 261.693695,116.619827 
	C261.764221,113.302299 260.416748,112.259270 257.244263,112.310188 
	C248.914688,112.443871 240.577438,112.511528 232.250824,112.302902 
	C223.199646,112.076126 218.173203,105.115387 220.805176,96.847984 
	C222.206802,92.445259 226.162857,89.728134 231.613602,89.676346 
	C239.778030,89.598770 247.952148,89.431023 256.105530,89.739990 
	C260.621765,89.911125 261.998962,88.204239 261.712250,83.927902 
	C261.423065,79.614929 261.604431,75.266449 261.667358,70.934807 
	C261.752594,65.069977 265.721649,60.709484 271.707794,59.788921 
	C276.423767,59.063686 281.774750,62.235580 283.233032,67.167496 
	C284.263184,70.651489 286.047302,71.858421 289.652496,71.723091 
	C296.641205,71.460754 303.655212,71.874084 310.644043,71.613609 
	C330.249298,70.882904 354.411621,85.995422 360.229462,109.760498 
	C361.450531,114.748268 363.711792,115.771141 368.381927,115.744057 
	C400.208252,115.559448 432.044556,116.097298 463.860809,115.502357 
	C487.612183,115.058228 504.750000,125.404823 512.823914,148.701416 
	C513.000000,212.687561 513.000000,276.375122 512.872559,340.861328 
	C506.806915,360.672943 494.019379,371.755981 474.229523,374.169464 
	C470.151184,374.666870 468.947113,376.353546 468.313324,379.913361 
	C466.092285,392.388062 459.154297,401.635101 448.451874,408.242157 
	C440.225311,413.320801 431.271240,415.133698 421.749237,414.353088 
	C417.741943,414.024628 415.567352,415.234985 413.999237,419.372345 
	C411.784882,425.214783 408.936707,430.881348 404.500153,435.620789 
	C390.630981,450.436798 373.764862,456.836029 353.730713,453.271393 
	C333.746979,449.715759 319.663849,438.113953 312.046417,419.371735 
	C310.437714,415.413635 308.804932,414.330292 305.006134,414.335785 
	C256.178375,414.406067 207.350449,414.413818 158.522812,414.315430 
	C155.189301,414.308685 153.499283,415.245178 152.331512,418.501648 
	C143.733368,442.478424 118.899239,457.781372 93.108681,453.456024 
	C72.851311,450.058685 58.237972,439.269257 50.408833,420.260590 
	C48.425064,415.444092 46.090729,414.232056 41.318623,414.274048 
	C30.726028,414.367218 21.780951,410.015961 13.890379,403.046112 
	C7.389355,397.303711 4.419248,389.549255 1.000000,382.000000 
	C1.000000,365.979095 1.000000,349.958221 0.999999,333.468658 
M23.504211,340.279388 
	C23.452913,350.439911 23.458723,360.601105 23.333176,370.760712 
	C23.222506,379.716492 27.341537,385.852264 35.361485,389.597473 
	C43.538464,393.416077 45.927197,392.521362 48.270222,384.185394 
	C55.945435,356.878662 83.833649,340.719238 109.867416,345.526245 
	C132.701721,349.742462 147.441589,363.107361 153.720108,385.159149 
	C155.294098,390.687347 157.337570,391.759674 162.400070,391.740814 
	C205.218491,391.581268 248.037781,391.655396 290.856812,391.656555 
	C295.688507,391.656677 300.520264,391.617584 305.351807,391.640625 
	C307.603577,391.651367 309.126434,390.999084 309.620239,388.471832 
	C312.203308,375.252167 318.800354,364.511444 329.566284,356.322723 
	C346.472717,343.463379 365.057068,340.982574 384.410675,348.960938 
	C401.336945,355.938660 412.443512,368.676910 416.419220,387.016113 
	C416.816864,388.850281 416.953003,391.259277 419.566345,391.539093 
	C430.739563,392.735382 442.547333,389.330109 445.424194,376.023163 
	C448.001465,364.101959 446.898285,351.901031 445.981110,339.796906 
	C445.344025,331.389160 441.126801,325.405457 433.706177,321.849976 
	C425.184753,317.766968 416.296143,314.428406 407.887756,310.138000 
	C400.547302,306.392578 391.970581,304.848297 387.114441,296.593048 
	C377.701599,280.591736 367.247375,265.204498 357.774719,249.236511 
	C349.739960,235.692352 338.654694,229.087769 322.658356,229.222565 
	C278.676147,229.593170 234.688629,229.281738 190.703598,229.392746 
	C179.345184,229.421432 169.521942,233.522537 162.459702,242.682312 
	C149.297150,259.754242 136.305573,276.959534 123.389275,294.218903 
	C119.451134,299.481232 115.549576,303.848114 108.496391,305.627441 
	C85.384224,311.458008 62.473656,318.087463 39.483814,324.403351 
	C31.516939,326.592010 26.057425,331.384216 23.504211,340.279388 
M332.153076,151.633514 
	C339.246216,143.297318 340.524567,133.331131 339.554962,123.025780 
	C338.051270,107.043869 326.741272,96.309540 313.347168,94.617149 
	C304.993347,93.561615 296.400146,94.431404 287.914886,94.367477 
	C285.380951,94.348389 284.324829,95.448921 284.329346,97.965836 
	C284.365723,118.265648 284.381561,138.565613 284.327759,158.865326 
	C284.320312,161.677658 285.493439,162.706070 288.221161,162.664032 
	C294.376190,162.569199 300.547211,162.892090 306.686981,162.571472 
	C316.186401,162.075424 324.934021,159.437790 332.153076,151.633514 
M82.826340,425.631866 
	C101.960846,439.559174 125.347961,427.945129 131.314499,408.866302 
	C135.231461,396.341217 131.676941,385.283752 122.375031,376.686432 
	C112.360161,367.430145 100.357834,365.560394 87.717323,371.184052 
	C77.170509,375.876251 71.006561,384.428833 69.525948,395.644318 
	C67.933159,407.709534 72.375626,417.768280 82.826340,425.631866 
M336.161926,416.352875 
	C341.666412,425.289429 349.968933,430.391510 360.066742,431.479462 
	C373.565002,432.933746 384.058746,426.846863 390.672760,415.246185 
	C397.382751,403.477112 396.122253,391.578552 388.285400,380.652069 
	C376.617035,364.383606 350.817932,364.322235 338.731049,380.042114 
	C329.944733,391.469360 329.000305,403.181580 336.161926,416.352875 
z"/>
</svg>