<?xml version="1.0" encoding="UTF-8"?>
<!DOCTYPE svg PUBLIC "-//W3C//DTD SVG 1.1//EN" "http://www.w3.org/Graphics/SVG/1.1/DTD/svg11.dtd">
<svg xmlns="http://www.w3.org/2000/svg" version="1.1" width="512px" height="512px" style="shape-rendering:geometricPrecision; text-rendering:geometricPrecision; image-rendering:optimizeQuality; fill-rule:evenodd; clip-rule:evenodd" xmlns:xlink="http://www.w3.org/1999/xlink">
<g><path style="opacity:0.933" fill="#FFFFFF" d="M 511.5,108.5 C 511.5,111.167 511.5,113.833 511.5,116.5C 510.146,118.696 508.146,120.196 505.5,121C 489.5,123 473.5,125 457.5,127C 447.833,141.333 438.167,155.667 428.5,170C 423.458,172.099 419.291,170.932 416,166.5C 409.022,152.045 402.189,137.545 395.5,123C 380.167,119 364.833,115 349.5,111C 342.825,107.807 341.325,102.974 345,96.5C 356.35,85.6496 367.85,74.9829 379.5,64.5C 379.925,48.3119 379.258,32.1452 377.5,16C 378.77,8.52588 383.104,5.85921 390.5,8C 404.489,15.9103 418.656,23.4103 433,30.5C 447.642,25.3967 462.142,19.8967 476.5,14C 484.021,12.0348 488.021,14.8681 488.5,22.5C 486.071,38.4767 483.071,54.3101 479.5,70C 490.408,82.7314 501.075,95.5648 511.5,108.5 Z M 395.5,30.5 C 406.3,36.067 416.966,41.9003 427.5,48C 431.594,48.7673 435.594,48.434 439.5,47C 449.072,43.2959 458.572,39.4626 468,35.5C 467.12,45.9079 465.454,56.2412 463,66.5C 462.333,69.8333 462.333,73.1667 463,76.5C 470.833,86.3333 478.667,96.1667 486.5,106C 473.103,107.674 459.769,109.674 446.5,112C 439.209,122.748 432.042,133.581 425,144.5C 419.355,132.562 413.522,120.729 407.5,109C 394.556,105.18 381.556,101.514 368.5,98C 378.095,89.2828 387.595,80.4495 397,71.5C 397.458,57.7944 396.958,44.1278 395.5,30.5 Z"/></g>
<g><path style="opacity:0.931" fill="#FFFFFF" d="M -0.5,310.5 C -0.5,296.833 -0.5,283.167 -0.5,269.5C 10.8303,186.007 54.8303,126.841 131.5,92C 147.641,85.393 164.308,81.0597 181.5,79C 187.095,81.354 188.928,85.5207 187,91.5C 140.679,148.779 128.345,212.779 150,283.5C 173.739,346.906 217.906,388.739 282.5,409C 312.013,417.056 341.847,418.556 372,413.5C 378.697,414.857 381.363,418.857 380,425.5C 336.944,477.022 281.611,503.022 214,503.5C 133.634,501.498 71.9671,466.831 29,399.5C 13.0301,371.757 3.19672,342.091 -0.5,310.5 Z M 154.5,101.5 C 155.552,101.351 156.552,101.517 157.5,102C 118.496,164.872 111.996,231.038 138,300.5C 171.757,375.313 229.257,419.147 310.5,432C 323.141,433.094 335.808,433.761 348.5,434C 304.774,473.687 253.441,491.02 194.5,486C 118.895,475.707 64.7282,436.207 32,367.5C 3.7977,294.249 13.4644,226.582 61,164.5C 86.4042,134.886 117.571,113.886 154.5,101.5 Z"/></g>
<g><path style="opacity:0.934" fill="#FFFFFF" d="M 277.5,167.5 C 279.527,167.338 281.527,167.505 283.5,168C 293.576,173.12 303.409,178.62 313,184.5C 322.428,180.537 331.928,176.704 341.5,173C 352.793,170.715 356.96,175.215 354,186.5C 352.228,195.527 350.395,204.527 348.5,213.5C 355.144,221.979 361.978,230.312 369,238.5C 372.909,245.514 371.076,250.347 363.5,253C 352.833,254.333 342.166,255.667 331.5,257C 325.209,266.415 319.042,275.915 313,285.5C 308.667,289.5 304.333,289.5 300,285.5C 294.69,275.046 289.523,264.546 284.5,254C 273.544,250.844 262.544,247.844 251.5,245C 247.212,241.229 246.379,236.729 249,231.5C 257,224.167 265,216.833 273,209.5C 273.055,198.824 272.555,188.157 271.5,177.5C 271.474,172.877 273.474,169.544 277.5,167.5 Z M 289.5,191.5 C 297.028,195.431 304.695,199.097 312.5,202.5C 319.605,200.114 326.605,197.447 333.5,194.5C 333.833,195.333 334.167,196.167 334.5,197C 333.228,203.527 331.895,210.027 330.5,216.5C 331.236,218.541 332.069,220.541 333,222.5C 337.355,227.354 341.522,232.354 345.5,237.5C 337.415,238.676 329.415,240.176 321.5,242C 316.63,248.239 312.13,254.739 308,261.5C 304.354,254.225 300.521,247.059 296.5,240C 288.692,237.048 280.692,234.714 272.5,233C 278.635,227.866 284.469,222.366 290,216.5C 290.573,208.151 290.407,199.818 289.5,191.5 Z"/></g>
<g><path style="opacity:0.933" fill="#FFFFFF" d="M 511.5,343.5 C 511.5,346.5 511.5,349.5 511.5,352.5C 509.99,353.836 508.323,355.003 506.5,356C 494.746,357.427 483.079,359.26 471.5,361.5C 465.539,371.258 459.205,380.758 452.5,390C 448.085,392.345 444.085,391.845 440.5,388.5C 435.785,378.185 430.785,368.019 425.5,358C 414.934,354.691 404.267,351.691 393.5,349C 388.223,346.167 386.723,342 389,336.5C 397.03,328.136 405.363,320.136 414,312.5C 413.519,300.513 413.186,288.513 413,276.5C 415.897,271.845 420.063,270.345 425.5,272C 434.776,277.555 444.276,282.722 454,287.5C 464.167,283.667 474.333,279.833 484.5,276C 491.767,274.6 495.433,277.6 495.5,285C 493.885,295.407 491.885,305.741 489.5,316C 496.007,325.857 503.34,335.024 511.5,343.5 Z M 430.5,294.5 C 437.697,298.849 445.197,302.516 453,305.5C 460.553,303.305 468.053,300.972 475.5,298.5C 473.999,306.162 472.832,313.829 472,321.5C 476.419,328.26 481.253,334.76 486.5,341C 478.021,342.099 469.687,343.766 461.5,346C 457.277,352.292 452.944,358.458 448.5,364.5C 445.148,356.962 441.148,349.795 436.5,343C 429.027,340.968 421.693,338.634 414.5,336C 420.182,330.597 425.682,325.097 431,319.5C 431.389,311.16 431.222,302.827 430.5,294.5 Z"/></g>
</svg>
