<?xml version="1.0" encoding="UTF-8"?>
<!DOCTYPE svg PUBLIC "-//W3C//DTD SVG 1.1//EN" "http://www.w3.org/Graphics/SVG/1.1/DTD/svg11.dtd">
<svg xmlns="http://www.w3.org/2000/svg" version="1.1" width="512px" height="512px" style="shape-rendering:geometricPrecision; text-rendering:geometricPrecision; image-rendering:optimizeQuality; fill-rule:evenodd; clip-rule:evenodd" xmlns:xlink="http://www.w3.org/1999/xlink">
<g><path style="opacity:0.946" fill="#FFFFFF" d="M 274.5,-0.5 C 277.5,-0.5 280.5,-0.5 283.5,-0.5C 285.144,0.316435 286.31,1.64977 287,3.5C 287.333,63.5 287.667,123.5 288,183.5C 290.814,186.96 292.98,190.793 294.5,195C 302.603,195.063 310.603,195.73 318.5,197C 348.167,221.333 377.833,245.667 407.5,270C 426.125,288.33 431.291,309.83 423,334.5C 419.744,336.429 416.244,336.929 412.5,336C 372.629,312.634 332.629,289.467 292.5,266.5C 292.167,268.167 291.833,269.833 291.5,271.5C 298.108,346.183 304.774,420.85 311.5,495.5C 326.17,495.333 340.837,495.5 355.5,496C 358.516,497.529 359.849,500.029 359.5,503.5C 359.718,507.066 358.384,509.732 355.5,511.5C 288.833,511.5 222.167,511.5 155.5,511.5C 151.258,507.633 150.425,502.966 153,497.5C 153.75,496.874 154.584,496.374 155.5,496C 170.163,495.5 184.83,495.333 199.5,495.5C 206.505,421.117 212.838,346.783 218.5,272.5C 189.794,283.235 161.128,294.068 132.5,305C 106.313,315.499 83.1461,310.999 63,291.5C 60.8286,287.343 61.3286,283.509 64.5,280C 115.585,250.374 166.752,220.874 218,191.5C 220.25,187.332 222.75,183.332 225.5,179.5C 222.081,174.332 218.915,168.998 216,163.5C 215.333,159.833 215.333,156.167 216,152.5C 222.118,115.126 228.451,77.7927 235,40.5C 241.256,20.0787 254.423,6.41207 274.5,-0.5 Z M 269.5,20.5 C 271.495,69.8221 272.162,119.489 271.5,169.5C 263.273,167.598 254.94,167.098 246.5,168C 244.112,168.303 241.945,169.137 240,170.5C 237.228,165.955 234.728,161.289 232.5,156.5C 238.784,118.794 245.284,81.127 252,43.5C 255.398,33.941 261.231,26.2743 269.5,20.5 Z M 248.5,184.5 C 262.981,182.318 272.814,187.985 278,201.5C 280.366,215.606 274.866,225.106 261.5,230C 247.394,232.366 237.894,226.866 233,213.5C 230.831,199.834 235.998,190.167 248.5,184.5 Z M 295.5,212.5 C 300.511,212.334 305.511,212.501 310.5,213C 337.543,235.712 364.876,258.045 392.5,280C 403.81,288.788 409.644,300.288 410,314.5C 367.5,290 325,265.5 282.5,241C 281.549,240.282 281.383,239.449 282,238.5C 289.936,231.629 294.436,222.962 295.5,212.5 Z M 213.5,213.5 C 214.497,213.47 215.164,213.97 215.5,215C 218.053,224.939 223.053,233.439 230.5,240.5C 228.167,244.5 225.833,248.5 223.5,252.5C 188.205,265.765 152.872,278.932 117.5,292C 106.585,294.787 96.2518,293.454 86.5,288C 128.896,263.14 171.23,238.307 213.5,213.5 Z M 246.5,247.5 C 251.179,247.334 255.845,247.501 260.5,248C 264.75,250.374 268.916,252.874 273,255.5C 280.018,335.53 287.185,415.53 294.5,495.5C 268.5,495.5 242.5,495.5 216.5,495.5C 223.482,419.196 230.315,342.863 237,266.5C 239.632,259.903 242.799,253.569 246.5,247.5 Z"/></g>
<g><path style="opacity:0.962" fill="#FFFFFF" d="M 91.5,31.5 C 99.5069,31.3336 107.507,31.5003 115.5,32C 131.752,38.3289 138.252,50.1622 135,67.5C 131.833,77.3333 125.333,83.8333 115.5,87C 86.1667,87.6667 56.8333,87.6667 27.5,87C 26.5838,86.6258 25.7504,86.1258 25,85.5C 23.5167,82.2976 23.1834,78.9643 24,75.5C 24.5,73.6667 25.6667,72.5 27.5,72C 54.1667,71.6667 80.8333,71.3333 107.5,71C 117.36,68.7791 120.527,62.9458 117,53.5C 115.457,51.6217 113.624,50.1217 111.5,49C 104.122,48.083 96.7885,47.083 89.5,46C 87.5715,42.7441 87.0715,39.2441 88,35.5C 88.6897,33.6498 89.8564,32.3164 91.5,31.5 Z"/></g>
<g><path style="opacity:0.962" fill="#FFFFFF" d="M 395.5,71.5 C 403.507,71.3336 411.507,71.5003 419.5,72C 435.752,78.3289 442.252,90.1622 439,107.5C 435.833,117.333 429.333,123.833 419.5,127C 390.167,127.667 360.833,127.667 331.5,127C 330.584,126.626 329.75,126.126 329,125.5C 327.517,122.298 327.183,118.964 328,115.5C 328.5,113.667 329.667,112.5 331.5,112C 358.167,111.667 384.833,111.333 411.5,111C 421.36,108.779 424.527,102.946 421,93.5C 419.457,91.6217 417.624,90.1217 415.5,89C 408.122,88.083 400.788,87.083 393.5,86C 391.571,82.7441 391.071,79.2441 392,75.5C 392.69,73.6498 393.856,72.3164 395.5,71.5 Z"/></g>
<g><path style="opacity:0.962" fill="#FFFFFF" d="M 67.5,103.5 C 97.8964,103.023 128.23,103.523 158.5,105C 173.962,113.105 179.128,125.605 174,142.5C 170.833,149.667 165.667,154.833 158.5,158C 149.576,159.58 140.576,159.913 131.5,159C 129.667,158.5 128.5,157.333 128,155.5C 127.071,151.756 127.571,148.256 129.5,145C 136.788,143.917 144.122,142.917 151.5,142C 157.603,138.96 159.769,134.126 158,127.5C 155.889,123.056 152.389,120.556 147.5,120C 120.833,119.667 94.1667,119.333 67.5,119C 64.484,117.471 63.1506,114.971 63.5,111.5C 63.2824,107.934 64.6157,105.268 67.5,103.5 Z"/></g>
<g><path style="opacity:0.962" fill="#FFFFFF" d="M 443.5,143.5 C 451.507,143.334 459.507,143.5 467.5,144C 483.752,150.329 490.252,162.162 487,179.5C 483.833,189.333 477.333,195.833 467.5,199C 438.167,199.667 408.833,199.667 379.5,199C 378.584,198.626 377.75,198.126 377,197.5C 375.517,194.298 375.183,190.964 376,187.5C 376.5,185.667 377.667,184.5 379.5,184C 406.167,183.667 432.833,183.333 459.5,183C 469.36,180.779 472.527,174.946 469,165.5C 467.457,163.622 465.624,162.122 463.5,161C 456.122,160.083 448.788,159.083 441.5,158C 439.571,154.744 439.071,151.244 440,147.5C 440.69,145.65 441.856,144.316 443.5,143.5 Z"/></g>
</svg>
